<?xml version="1.0" encoding="UTF-8"?><svg xmlns="http://www.w3.org/2000/svg" xmlns:xlink="http://www.w3.org/1999/xlink" viewBox="0 0 841.89 596.39"><defs><style>.cls-1{fill:#575756;}.cls-1,.cls-2,.cls-3,.cls-4,.cls-5,.cls-6,.cls-7,.cls-8,.cls-9,.cls-10,.cls-11,.cls-12,.cls-13,.cls-14,.cls-15,.cls-16,.cls-17,.cls-18,.cls-19,.cls-20,.cls-21,.cls-22,.cls-23,.cls-24,.cls-25,.cls-26,.cls-27,.cls-28,.cls-29,.cls-30,.cls-31,.cls-32,.cls-33,.cls-34,.cls-35,.cls-36,.cls-37,.cls-38,.cls-39,.cls-40,.cls-41,.cls-42,.cls-43,.cls-44,.cls-45,.cls-46,.cls-47,.cls-48,.cls-49,.cls-50,.cls-51,.cls-52,.cls-53{stroke-width:0px;}.cls-1,.cls-14{mix-blend-mode:multiply;}.cls-2{fill:#fffadc;mix-blend-mode:screen;opacity:.7;}.cls-3{fill:url(#radial-gradient);}.cls-4{fill:url(#radial-gradient-10);}.cls-5{fill:url(#radial-gradient-2);}.cls-6{fill:url(#radial-gradient-3);}.cls-7{fill:url(#radial-gradient-4);}.cls-8{fill:url(#radial-gradient-6);}.cls-9{fill:url(#radial-gradient-9);}.cls-10{fill:url(#radial-gradient-8);}.cls-11{fill:url(#radial-gradient-5);}.cls-12{fill:url(#radial-gradient-7);}.cls-54{mix-blend-mode:color-burn;}.cls-13{fill:url(#Degradado_sin_nombre_5);}.cls-55{fill:none;stroke:#2c190f;stroke-miterlimit:10;}.cls-14{fill:#e5c7ae;opacity:.5;}.cls-56{isolation:isolate;}.cls-15{fill:#f49c5b;}.cls-16{fill:#f8b133;}.cls-17{fill:#f9c1ae;}.cls-18{fill:#f9b233;}.cls-19{fill:#2c190f;}.cls-20{fill:#2a1c2f;}.cls-21{fill:#32231c;}.cls-22{fill:#3c3040;}.cls-23{fill:#1d1d1b;}.cls-24{fill:#1eb4b8;}.cls-25{fill:#d43941;}.cls-26{fill:#d45615;}.cls-27{fill:#e0e0e1;}.cls-28{fill:#d3a47c;}.cls-29{fill:#dadada;}.cls-30{fill:#dc3f4e;}.cls-31{fill:#bc8062;}.cls-32{fill:#be1622;}.cls-33{fill:#be1823;}.cls-34{fill:#b2b2b2;}.cls-35{fill:#b23d17;}.cls-36{fill:#a95935;}.cls-37{fill:#ab2850;}.cls-38{fill:#c27f48;}.cls-39{fill:#bb703d;}.cls-40{fill:#331b19;}.cls-41{fill:#fecb29;}.cls-42{fill:#93212c;}.cls-43{fill:#7f2041;}.cls-44{fill:#6b4969;}.cls-45{fill:#64b32e;}.cls-46{fill:#663d2b;}.cls-47{fill:#f39200;}.cls-48{fill:#fff;}.cls-49{fill:#e62935;}.cls-50{fill:#e94e1b;}.cls-51{fill:#e6332a;}.cls-52{fill:#f18a95;}.cls-53{fill:#fcc040;}</style><linearGradient id="Degradado_sin_nombre_5" x1="342.86" y1="316.65" x2="628.51" y2="316.65" gradientTransform="translate(10.4 -12.79) rotate(1.49)" gradientUnits="userSpaceOnUse"><stop offset="0" stop-color="#010202"/><stop offset=".12" stop-color="#220505"/><stop offset=".35" stop-color="#5a0c0c"/><stop offset=".55" stop-color="#851111"/><stop offset=".74" stop-color="#a51414"/><stop offset=".89" stop-color="#b81717"/><stop offset="1" stop-color="#bf1818"/></linearGradient><radialGradient id="radial-gradient" cx="252.77" cy="260.46" fx="252.77" fy="260.46" r="31.04" gradientTransform="translate(543.16) rotate(-180) scale(1 -1)" gradientUnits="userSpaceOnUse"><stop offset="0" stop-color="#f7a71c"/><stop offset="1" stop-color="#ef7d19"/></radialGradient><radialGradient id="radial-gradient-2" cx="574.95" cy="193.85" fx="574.95" fy="193.85" r="7.82" gradientTransform="translate(-104.96 -133.75) rotate(28.17) scale(.93) skewX(-.33)" gradientUnits="userSpaceOnUse"><stop offset=".01" stop-color="#f39c8a"/><stop offset="1" stop-color="#ee756e"/></radialGradient><radialGradient id="radial-gradient-3" cx="224.93" cy="319.11" fx="224.93" fy="319.11" r="16.09" xlink:href="#radial-gradient"/><radialGradient id="radial-gradient-4" cx="204.03" cy="302.1" fx="204.03" fy="302.1" r="17.47" gradientTransform="translate(543.16) rotate(-180) scale(1 -1)" gradientUnits="userSpaceOnUse"><stop offset=".01" stop-color="#fffbe1"/><stop offset="1" stop-color="#f2d8b3"/></radialGradient><radialGradient id="radial-gradient-5" cx="252.26" cy="331.36" fx="252.26" fy="331.36" r="9.35" xlink:href="#radial-gradient"/><radialGradient id="radial-gradient-6" cx="312.26" cy="259.11" fx="312.26" fy="259.11" r="13.43" xlink:href="#radial-gradient"/><radialGradient id="radial-gradient-7" cx="215.44" cy="237.4" fx="215.44" fy="237.4" r="2.84" gradientTransform="translate(543.16) rotate(-180) scale(1 -1)" xlink:href="#radial-gradient-2"/><radialGradient id="radial-gradient-8" cx="204.69" cy="234.23" fx="204.69" fy="234.23" r="7.68" xlink:href="#radial-gradient"/><radialGradient id="radial-gradient-9" cx="205.84" cy="254.58" fx="205.84" fy="254.58" r="7.68" gradientTransform="translate(401.32 -62.94) rotate(164.9) scale(.81 -.93)" xlink:href="#radial-gradient"/><radialGradient id="radial-gradient-10" cx="167.09" cy="264.33" fx="167.09" fy="264.33" r="2.84" gradientTransform="translate(334.77 -38.22) rotate(164.02) scale(.65 -.88)" xlink:href="#radial-gradient-2"/></defs><g class="cls-56"><g id="Prop3"><path class="cls-18" d="m454.79,373.22v2.77h-10.27v3.74h8.2v2.76h-8.2v7.15h-3.3v-16.43h13.56Z"/><path class="cls-18" d="m474.17,381.44c0,4.68-3.72,8.47-9.45,8.47s-9.45-3.79-9.45-8.47,3.72-8.47,9.45-8.47,9.45,3.79,9.45,8.47Zm-3.4,0c0-3.48-1.79-5.58-6.05-5.58s-6.05,2.1-6.05,5.58,1.79,5.58,6.05,5.58,6.05-2.1,6.05-5.58Z"/><path class="cls-18" d="m494.48,381.44c0,4.68-3.72,8.47-9.45,8.47s-9.45-3.79-9.45-8.47,3.72-8.47,9.45-8.47,9.45,3.79,9.45,8.47Zm-3.4,0c0-3.48-1.79-5.58-6.05-5.58s-6.05,2.1-6.05,5.58,1.79,5.58,6.05,5.58,6.05-2.1,6.05-5.58Z"/><path class="cls-18" d="m512.2,381.43c0,5.45-2.62,8.21-7,8.21h-8.52v-16.43h8.52c4.38,0,7,2.76,7,8.21Zm-3.5,0c0-4.56-1.43-5.45-3.5-5.45h-5.23v10.9h5.23c2.07,0,3.5-.89,3.5-5.45Z"/><path class="cls-18" d="m535.97,373.22v2.77h-5.6v13.66h-3.3v-13.66h-5.6v-2.77h14.49Z"/><path class="cls-18" d="m549.23,384.25l3.85,5.4h-3.84l-3.72-5.21h-4.67v5.21h-3.3v-16.43h9.75c4.58,0,5.77,3.52,5.77,5.42,0,2.07-.9,4.86-3.85,5.6Zm.81-5.23c0-1.05-.43-3.03-2.73-3.03h-6.45v5.69h6.78c1.81,0,2.4-1.6,2.4-2.66Z"/><path class="cls-18" d="m567.82,381.44v-8.22h3.3v8.22c0,4.68-2.32,8.47-8.05,8.47s-8.05-3.79-8.05-8.47v-8.22h3.3v8.22c0,3.48,1.09,5.58,4.75,5.58s4.75-2.1,4.75-5.58h0Z"/><path class="cls-18" d="m587.67,384.77l2.56,1.63c-1.62,2.12-4.33,3.51-7.79,3.51-5.73,0-9.45-3.79-9.45-8.47s3.72-8.47,9.45-8.47c3.46,0,6.17,1.38,7.79,3.5l-2.56,1.63c-.9-1.44-2.59-2.24-5.23-2.24-4.26,0-6.05,2.1-6.05,5.58s1.79,5.58,6.05,5.58c2.64,0,4.33-.81,5.23-2.25Z"/><path class="cls-18" d="m609.32,373.22l-7.85,6.25,7.85,10.18h-3.71l-6.44-8.35-3.72,2.96v5.39h-3.3v-16.43h3.3v7.43l9.33-7.43h4.54Z"/><path class="cls-13" d="m626.81,307.19c-4-8.47-11.4-13.27-20.83-13.52-1.26-.03-2.58.02-3.97.15-2.33.24-4.55.79-6.65,1.56.12-2.25-.26-4.84-1.88-7.37-.63-1.35-1.45-2.37-2.29-3.14.22-8.89-5.42-15.01-14.05-15.23-.33,0-33.78-.51-43.82,2.89-.58.2-1.13.45-1.66.75-4.48,2.54-7.23,7.38-7.38,12.95-.04,1.52.14,3.69,1.04,5.96-.32.18-.64.36-.95.55-5.15-10.48-16.24-17.21-29.58-17.56-5.43-.14-15.78.87-23.85,5.09-1.32-6.85-6.44-13.07-17.72-13.36-4.79-.12-27.55-.33-47.87.47-.08-5.2.24-11.32,1.77-19.57.72-3.99-.19-7.79-2.55-10.7-2.24-2.75-5.58-4.38-9.18-4.47-2.31-.06-4.53.54-6.49,1.63-2.1-1.18-4.68-1.92-7.76-2-5.55-.14-11.1.84-15.79,1.82-.06.01-.13.03-.19.04-10.57,2.43-13.5,10.71-14.86,17.03-2.77,2.51-3.93,5.79-4,8.65-.04,1.68.2,4.2,1.61,6.72-.41,4.91-.51,11.41,3.73,16.2,2.52,2.85,6.12,4.48,10.12,4.58.49.01,1.1.01,1.77,0,.28,11.8,11.27,18.08,32.77,18.63.4.01.8.02,1.19.03-3.92,21.69-8.33,52.09-3.34,71.04,4.29,16.66,15.15,18.73,19.62,18.84,8.95.23,16.14-6.6,16.38-15.56.07-2.85-.3-5.47-.65-8-.29-2.08-.57-4.05-.53-5.77.02-.75.06-1.56.1-2.38,2.1,1.36,4.55,2.15,7.09,2.21,3.36.09,6.63-1.06,9.06-3.11.08-.06,2.02-1.5,4.92-1.43,1.55.04,3.2.51,4.9,1.39,1.84.96,3.9,1.5,5.97,1.55,3.71.1,7.26-1.37,9.87-3.89,2.52,2.88,5.88,4.92,10.39,5.04,8.07.21,14.81-6.49,15.03-14.95.08-2.88-.7-6.03-1.7-10.05-.02-.06-.03-.12-.05-.19.9-.15,1.79-.33,2.67-.54.92,2.27,2.48,4.36,4.89,5.84,1.46,4.77,4.86,9.51,12.58,9.72,2.03.05,4.75-.28,7.27-1.9,1.85,5.74,6.07,11.19,15.61,11.44,3.97.1,7.58-1.16,10.39-3.36,2.79,1.92,5.61,2.35,7.3,2.39,4.19.11,7.91-1.82,10.37-4.95,1.99,1.11,4.19,1.75,6.5,1.81.52.01,1.04,0,1.56-.05,4.75-.35,8.34-1.92,10.77-4.65,4.96,4.87,11.28,7.48,17.63,7.65,16.27.42,27.6-14.31,28.18-36.65.21-8.13-.95-14.95-3.46-20.26Z"/><path class="cls-48" d="m397.58,246.08c-2.07,11.11-2.13,19-1.78,25.93.06,1.35-.64,2.39-2.28,2.49-8.34.5-3.06-26.69-1.43-30.25,1.48-3.09,6.27-2.53,5.48,1.83Z"/><path class="cls-48" d="m435.69,340.76c-5.37-.14-6.77-5.26-6.65-9.86.25-9.67,12.52-31.41,23.44-31.12,3.26.08,4.25,2.6,6.56,2.09.87-.27,1.84-.62,2.7-.6,3.07.08,4.92,2.71,4.84,5.59-.1,3.83-1.83,7.43-1.93,11.45-.24,9.2,5.24,12.41,5.11,17.49-.1,3.93-3.53,6.72-7.46,6.61-8.34-.22-9.37-12.03-7.54-19.66-3.38,4.52-12.65,18.18-19.07,18.01Zm5.19-15.11c-3.54,7-1.04,6.69,3.31,1.52,14.03-15.93,5.19-18.66-3.31-1.52Z"/><path class="cls-48" d="m602.34,354.42c-13.01-.34-18.18-14.16-17.89-25.08.31-11.91,5.83-24.57,18.56-25.89,15.16-1.48,17.89,12.16,17.59,23.74-.28,10.81-4.36,27.59-18.25,27.23Zm3.32-38.54c-7.5-.2-7.17,25.09-1.99,25.22,3.86.1,5.04-11.24,5.12-14.32.06-2.42.07-10.82-3.13-10.9Z"/><path class="cls-48" d="m363.22,269.86c5.85-1,12.25-3.1,18.12-2.94,2.31.06,4.31.88,4.22,4.01-.15,5.91-19.37,6.81-23.56,6.7-6.39-.17-4.37-9.54-4.1-14.39-1.18-.7-1.98-1.54-1.94-3.18.05-1.73,1.75-2.46,3.01-2.81,1.22-6.37,1.76-12.18,8.34-13.69,4.31-.9,9.04-1.74,13.56-1.62,1.97.05,5.04.71,4.96,3.64-.04,1.54-.94,2.82-2.25,3.07-5.23,1.4-10.57,1.55-15.74,2.23-2.32.32-2.39,3.21-2.83,5.27,4-.28,8.35-1.03,12.2-.93,1.49.04,3.25.66,3.2,2.59-.03,1.15-.77,2-1.65,2.36-4.71,1.46-10.06,2.09-14.9,3.08-.15,2.26-.69,4.46-.65,6.62Z"/><path class="cls-48" d="m373.17,286.58c.09-3.46,2.09-5.85,4.55-6.94,12.54-3.27,61.74-3.4,75.23-3.05,4.62.12,8.82,1.52,8.66,7.8-.21,8.09-24.13,9.27-30.33,10.52-5.08,17.72-11.52,52.88-12,71.36-.13,4.88,1.29,9.54,1.18,13.77-.1,3.98-3.24,6.21-6.45,6.13-5.65-.15-8.86-5.24-10.49-11.58-5.38-20.43,1.92-58.91,5.64-78.34-6.93-.18-36.28,2.02-35.98-9.67Z"/><path class="cls-48" d="m519.37,338.03c-.52,3.01-.51,8.11-4.42,8.01-4.21-.11-3.97-3.8-4.24-7.5-2.51-.07-4.94-.42-4.85-3.89.1-3.99,6.29-3.31,7.35-6.9,2.66-8.5,11.01-28.53,21.28-28.26,11.38.3,8.46,18.47,8.26,26.15-.07,2.66,1.99,2.93,1.95,4.56-.04,1.55-2.13,2.31-2.2,5.04-.13,5.02,1.73,10.09,1.61,14.82-.09,3.54-3.1,5.61-6.27,5.53-10.26-.27-6.75-13.03-7.93-19.12l-10.53,1.57Zm11.26-9.76c0-3.25.46-6.41.69-9.66.72-7.74-2.43-5.98-5-.95-1.95,3.87-3.54,8.55-4.13,11.28l8.44-.67Z"/><path class="cls-48" d="m516.95,300.33c-2.6-9.11-11.41-15.19-22.43-15.48-4.95-.13-24.98,1.62-25.25,12.11-.08,2.96,1.81,5.15,4.49,5.22.02,0,.04,0,.06,0-1.9,7.91-2.34,17.15-2.44,20.97,0,.33.83,32.82,10.14,33.06,2.73.07,5.02-2.41,5.1-5.52.04-1.58-.64-4.3-1.42-7.46-.87-3.5-1.85-7.46-1.79-9.75.02-.59,0-1.09-.01-1.56,0-.21-.01-.4-.01-.59,7.77.95,15.3-.72,21.4-4.74,10.21-6.72,14.87-16.79,12.17-26.26Zm-13.34,12.39c-3.03,5.48-10.22,8.31-19.48,7.64,2.55-17.19,3.99-20.93,4.44-21.72,6.32-1.66,11.57-.54,14.43,3.09,2.39,3.03,2.62,7.34.6,10.98Z"/><path class="cls-48" d="m533.95,286.48c.06-2.37,1.14-4.02,2.47-4.78,6.76-2.29,33.21-2.57,40.46-2.38,2.48.06,4.74,1.01,4.62,5.31-.14,5.55-13.01,6.45-16.35,7.33-2.8,12.17-6.4,36.31-6.73,48.98-.09,3.35.66,6.54.58,9.44-.07,2.73-1.76,4.27-3.49,4.23-3.04-.08-4.74-3.56-5.6-7.9-2.81-13.99,1.26-40.4,3.33-53.74-3.73-.1-19.52,1.52-19.31-6.49Z"/><path class="cls-48" d="m579.92,320.15c-.96,7.07-1.51,17.06-1.37,22.99.3,7.29-1.57,8.02-5.66,8.3-3.01.32-5.85-2.97-6.8-7.36-2.12-8.02-2.07-21.14-.6-25.38,1.05-7.06,16.28-9.58,14.43,1.44Z"/><path class="cls-48" d="m436.39,356.67c-1.1-.03-2.17-.5-2.94-1.39-1.43-1.67-1.26-4.18.4-5.62.51-.44,12.72-10.8,29.35-2.15,1.96,1.02,2.73,3.44,1.71,5.41-1.02,1.96-3.44,2.73-5.41,1.71-11.67-6.07-20.06.81-20.41,1.11-.78.66-1.75.97-2.7.95Z"/><path class="cls-48" d="m573.48,309.9c-1.78-5.1-.6-10.46,1.27-15.4.93-2.26,3.25-3.43,5.68-3.54,1.21-.14,2.67.24,4.06.93.34.16.22.6.46.87,1.42,1.6.59,3.38-.14,5.35-.53,1.47-3.33,2.55-4.34,3.59-2.48,2.38-4.04,2.48-5.68,5.61-.17.44-1.18,3.05-1.32,2.61h0Z"/><path class="cls-41" d="m584.25,260.52c.24-.91-.49-1.86-1.44-1.71-.79.13-1.65,1.73-2.12,2.31-1.54,1.9-3.06,4.2-5.03,5.68.35-2.12,2.45-10.09-2.05-9.22-1.86.36-3.08,2.38-4.24,3.69-1.51,1.72-2.93,3.76-4.76,5.15.35-1.49.69-2.99.99-4.49.25-1.26.8-3.03.14-4.25-1.68-3.09-4.48.12-5.85,1.55-2.47,2.58-4.91,5.19-7.33,7.81-1.92,2.08-.46-1.37-.18-2.42.4-1.49,1.05-3.34.39-4.86-1.16-2.65-3.71-2.37-5.35-.48-2.53,2.91-4.86,6.03-7.25,9.06-.92,1.16-4.88,5.5-2.02,6.67,2.15.88,5.66-4.36,6.86-5.7-.07,1.76-.56,4.07.62,5.59,1.3,1.67,3.43,1.4,4.98.32,1.83-1.29,3.2-3.28,4.63-4.97,1.57-1.85,3.13-3.7,4.7-5.55.86,2.23-2.47,8.92,2.28,8.77,1.63-.05,2.96-1.68,3.97-2.8,1.68-1.85,3.25-3.8,4.94-5.65.34,2.06-.54,4.33.23,6.32.73,1.91,2.71,2.29,4.37,1.31,2.07-1.22,3.35-3.75,4.64-5.69,1.31-1.96,3.27-4.12,3.87-6.44Z"/><path class="cls-45" d="m396,363.43c1.33.08.92-1.39.34-1.9-.85-.74-2.78-1.13-3.81-1.54.86-1.81,2.67-3.25,3.35-5.11.9-2.45-1.84-3.09-3.59-3.81,1.06-1.62,3.37-3.83,3.4-5.86.04-2.4-2.96-2.57-4.67-3.07,1.12-1.99,3.33-4.07,3.72-6.36.19-1.1-.15-2.13-.8-3.02-.29-.39-.65-.71-.99-1.06-.76-.76-.71-.55-.34-1.45.93-2.3,4.16-3.68,4.37-6.31.2-2.54-2.82-3.35-4.66-4.19.5-.98.9-1.77,1.63-2.61.7-.8,2.13-1.84,2.32-2.95.5-2.9-3.53-1.1-4.61-.42-1.84,1.16-3.63,3.23-3.83,5.49-.22,2.63,2.14,3.71,4.06,4.85-1.63,1.54-3.63,3.25-4.31,5.47-.86,2.83,1.23,4.35,3.35,5.67-1.43,1.85-3.86,4.37-4.11,6.79-.25,2.42,1.85,3.52,3.83,3.97-.99,1.62-2.82,3.59-2.71,5.63.11,2.01,1.9,2.8,3.58,3.32-1.1,1.79-3.82,4.64-2.26,6.77,1.34,1.83,4.74,1.59,6.74,1.71Z"/><path class="cls-45" d="m584.88,357.33c-3.16-1.1-7.52-1.15-10.85-1.14-3.73.01-7.45-.21-11.18-.2-7.25,0-15.1-.24-22.21,1.28-1.44.31-8.85,1.09-7.54,3.57,1.12,2.14,7.52.14,9.21-.07,7.68-.95,15.6-1.31,23.34-1.43,4.31-.07,8.6.18,12.91.29,1.87.05,4.13.3,5.96-.05,1.29-.25,1.9-1.71.37-2.25Z"/><path class="cls-45" d="m576.22,363.36c-6.93-.33-13.75-1.14-20.7-.71-3.52.21-7.12.23-10.61.72-1.15.16-8.02.88-5.88,3.06.89.91,3.42.65,4.54.65,1.75,0,3.5,0,5.26-.03,3.68-.04,7.35-.23,11.02-.49,3.66-.26,7.32-.5,10.98-.75,1.6-.11,3.27-.08,4.86-.35,1.37-.23,2.72-2,.53-2.11Z"/><path class="cls-24" d="m357.83,239.19c-1.54,1.39-2.96,2.9-4.39,4.4-1.07,1.13-3.86,3.12-4.29,4.52-.6,1.99,1.36,1.44,2.39.86,1.69-.96,3.26-2.21,4.83-3.35,6.15-4.5,12.9-8.16,20.62-8.91,1.93-.19,3.88-.23,5.74.32,1.16.34,3.09,1.66,3.86.37.8-1.35-1.14-2.95-2.09-3.58-1.65-1.08-3.62-1.46-5.56-1.49-7.12-.12-15.72,1.98-21.11,6.86Z"/><path class="cls-24" d="m347.76,241.14c1.45,1.45,5.32-2.4,6.78-3.23,2.72-1.55,5.61-2.79,8.45-4.1,2.93-1.36,5.86-2.74,8.93-3.74,1.23-.4,7.17-1.17,4.54-3.59-1.9-1.75-6.55-.74-8.72-.16-2.99.8-5.9,1.94-8.6,3.45-1.99,1.12-14.1,8.64-11.38,11.38Z"/><path class="cls-41" d="m375.19,312.66c-1.89-1.47-7.75,3.89-9.23,5.13-2.14,1.8-4.25,4.48-1.71,6.95,2.83,2.76,5.82-1.2,7.44-3.38,1.18-1.58,5.94-6.82,3.5-8.71Z"/><path class="cls-41" d="m368.87,299.92c-1.53-1.45-8.38,2.99-9.96,3.75-2.57,1.23-4.82,4.15-1.92,6.52,2.49,2.04,5.15-.43,6.84-2.17,1.27-1.31,7.22-6.05,5.05-8.1Z"/><path class="cls-41" d="m366.33,288.09c-.61-2.27-7.41-.34-9.05-.4-2.46-.09-8.6-1.89-7.46,2.94.87,3.71,5.75,2.95,8.46,2.3,1.83-.44,8.89-1.72,8.05-4.84Z"/><path class="cls-41" d="m381.43,320.63c-2.61-.18-5.73,2.89-7.69,4.33-2.08,1.53-3.46,4.26-.62,5.91,2.8,1.63,4.76-1.59,6.31-3.45.83-1,6.18-6.5,2-6.79Z"/><path class="cls-45" d="m403.75,244.9c3.7-2.15,7.87-4.52,10.98-7.48,1.66-1.58,4.33-6.76-.06-6.82-3.49-.05-7.65,5.5-9.81,7.72-1.17,1.21-3.63,3.13-3.99,4.81-.39,1.83,1.39,2.63,2.89,1.76Z"/><path class="cls-45" d="m406.51,253.74c-1.52,4.75,5.65.72,7,.04,2.85-1.44,6.87-2.76,7.98-6.09.4-1.2.57-2.74-.74-3.48-1.53-.87-3.54,1.01-4.67,1.87-1.69,1.27-3.38,2.55-5.07,3.83-1.13.86-4.03,2.38-4.5,3.84Z"/><path class="cls-45" d="m416.42,256.31c-1.62,1.15-9.4,5.32-8.3,7.63,1.1,2.32,6.01-.81,7.27-1.52,2.01-1.13,6.65-3.82,7.02-6.46.6-4.38-4.86-.44-5.98.36Z"/><path class="cls-24" d="m618.22,292.68c.98-2.87,2.57-6.02.24-8.85-2.29-2.78-4.61.5-5.42,2.63-.61,1.6-.82,3.18-.83,4.88,0,1.5-.43,4.28.22,5.66,1.83,3.86,5.25-2.79,5.77-4.32Z"/><path class="cls-24" d="m601.21,296.53c.54,1.42,2.15,1.35,2.89.2.6-.93.29-2.68.22-3.67-.21-3.08-.35-5.82-2.02-8.49-1.45-2.31-4.05-2.15-4.62.88-.32,1.71.78,3.68,1.35,5.24.71,1.96,1.44,3.91,2.18,5.85Z"/><path class="cls-24" d="m622.5,303.31c2.04-.29,5.25-3.65,6.54-5.21,1.15-1.4,2.42-5.57-.71-5.48-2.29.07-4.6,3.46-5.65,5.14-.66,1.06-3.64,6.05-.18,5.56Z"/><path class="cls-24" d="m630.71,306.04c-2.02,1.16-4.05,2.86-5.11,4.99-1.2,2.41.3,3.63,2.53,2.84,2.09-.74,5.43-2.52,6.26-4.71.84-2.21-1.5-4.37-3.68-3.11Z"/><path class="cls-24" d="m632.13,318.65c-1.71.3-4.63,2.75-5.57,4.3-1.3,2.16.78,2.55,2.46,2.04,1.54-.47,4.98-1.83,5.64-3.35.82-1.87-.63-3.33-2.54-2.99Z"/><path class="cls-41" d="m628.02,357.96c.53-1.03,2.9-5.24-.01-5.35-1.55-.06-3.93,4.32-4.82,5.39-1.63,1.96-3.53,3.6-5.8,4.78-2.58,1.34-5.47,1.68-8.06,2.85-2.31,1.05-.82,2.72,1.12,3,2.38.34,4.89-.59,7.08-1.49,4.52-1.87,8.24-4.75,10.49-9.16Z"/><path class="cls-41" d="m629.12,362.68c-1.83,1.21-3.16,3.2-4.96,4.52-1.62,1.2-3.42,2.1-5.14,3.15,2.03,1.74,5.58-1.17,7.42-2.48,1.17-.83,2.77-1.91,3.52-3.17.38-.65.7-3.05-.84-2.03Z"/><path class="cls-22" d="m281.92,326.84c-1.88,1.05-2.18,4.08-.54,5.48.38.33.84.57,1.17.96.58.68.65,1.66,1.13,2.41.29.47.73.84,1.15,1.19,1.2,1,2.4,2,3.6,3,.52.44,1.06.88,1.39,1.48.35.63.45,1.37.54,2.08.38,3.03.77,6.06,1.15,9.09-.24.09-.48.18-.72.26,1.91,5.02,2.5,10.44,2.94,15.79.08.96.09,2.07-.64,2.7-.44.38-1.05.47-1.62.55-3.03.41-6.25.68-9.03-.6-.55-.25-1.4-.6-1.92-.3-.65.38-.66-1.31-.81-1.8-2.68-8.6-7.42-16.41-12.76-23.66,4.08,6.91,6.96,14.52,8.49,22.4.14.7.25,1.47-.11,2.09-.4.69-1.25.95-2.03,1.11-3.89.83-7.97.7-11.8-.36-.74-.21-1.51-.46-2.05-1.01-.87-.88-.96-2.24-1.05-3.47-.44-5.95-2.3-11.79-5.37-16.91-1.7-2.83-3.74-5.45-5.21-8.42-.74-1.49-1.12-3-1.59-4.59-.51-1.72-1.26-3.35-1.85-5.03-.76-2.16-1.26-4.52-.62-6.71.02-.08.05-.15.1-.22.07-.08.17-.12.26-.15.88-.28,1.82-.21,2.74-.25s1.9-.21,2.55-.87c.2-.2.37-.45.62-.57.18-.09.39-.1.59-.11,2.4-.1,4.8-.03,7.18.22.15.02.31.03.42.13.11.09.17.23.21.37.15.5.17,1.03.23,1.55.14,1.28.5,2.54,1.07,3.7.04.08.07.16.04.24-.02.05-.08.08-.13.11-1.24.65-2.67.83-4.02,1.18s-2.75.97-3.47,2.17c-.3.5-.46,1.08-.81,1.54-.54.73-1.45,1.09-2.33,1.33s-1.8.41-2.57.9c-.12.07-.24.16-.38.15s-.27-.16-.2-.28c.06-.11.38-.16.49-.2-.47-.11-.45-3.38-.61-3.98-.53-1.96-1.99-3.82-1.54-5.8.08-.33.22-.66.5-.85.33-.21.76-.16,1.15-.14,3.84.2,7.4-3.31,11.12-2.35.43.11.86.29,1.16.62,1.14,1.27-.4,3.65.78,4.89.5.52,1.3.6,2.03.63,5.05.26,10.11.43,15.16.51.8.01,1.77-.07,2.13-.79.49-1.01-.88-3.48.2-4.15.82-.51,3,2.16,3.48,2.72Z"/><path class="cls-43" d="m248.66,321.12s9,3.79,20.51,3.43c11.51-.36,11.63-1.52,11.63-1.52,0,0,1.98,1.32.34,2.18,0,0,2.82,1.22.76,2.13,0,0,2.2,2.05-3.18,4.14-5.38,2.08-25.28,2.64-32.55-3.64-7.27-6.28-1.18-6.78,2.5-6.72Z"/><path class="cls-25" d="m257.86,326.37c-1.62-1.05-3.96-1.4-5.83-1.95-2.04-.6-4.11-1.39-6.22-1.53-.53-.04-.61.54-.25.81,1.63,1.22,3.76,1.85,5.74,2.48,1.88.59,4.28,1.55,6.2,1.37.65-.06,1.02-.75.37-1.17Z"/><path class="cls-25" d="m256.43,328.1c-.72-.34-1.52-.33-2.29-.41-.78-.08-1.53-.21-2.3-.22-.44,0-.66.53-.24.77,1.34.76,3.66,1.4,5,.8.44-.19.26-.74-.17-.94Z"/><path class="cls-40" d="m329.81,362.95c1.01.98,1.83,2.33,3.2,2.66-.04.18-.18.31-.32.43-1.27,1.14-2.58,2.23-3.93,3.27-1.62-1.82-3.5-3.39-5.37-4.95.11.1,1.6-1.1,1.76-1.23.59-.46,1.15-.96,1.67-1.49.16-.16.49-.67.74-.7.33-.04.49.37.69.59.48.52,1.05.93,1.56,1.41Z"/><path class="cls-40" d="m315.61,357.99c-.19.43-.34.88-.45,1.33l-14.37-13.07-23.03-20.95.49-.55,37.36,33.23Z"/><path class="cls-40" d="m318.85,354.31c-.38.23-.75.5-1.1.8l-37.57-32.5.63-.71,38.03,32.41Z"/><path class="cls-40" d="m317.52,355.31c-.18.17-.36.35-.53.54-.12.14-.24.28-.35.42l-37.26-32.76.6-.67,37.54,32.47Z"/><path class="cls-40" d="m316.45,356.51c-.27.38-.51.78-.71,1.19l-37.29-33.17.72-.8,37.28,32.78Z"/><path class="cls-40" d="m320.38,353.59c-.43.15-.85.33-1.25.55l-38.11-32.48.56-.63,21.97,18.43.12.1,16.7,14.02Z"/><polygon class="cls-27" points="336.03 368.95 335.19 368.23 330.67 364.38 328.98 362.94 320.54 355.74 318.85 354.31 280.82 321.9 276.73 318.41 276.11 317.88 276.3 317.66 276.93 318.19 281.02 321.67 319.13 354.15 320.85 355.62 329.07 362.62 330.79 364.08 335.39 368 336.23 368.72 336.03 368.95"/><polygon class="cls-27" points="317.75 355.1 319.34 356.48 328.38 364.3 329.96 365.67 334.2 369.33 335.04 370.06 334.83 370.28 334 369.56 329.79 365.92 328.21 364.55 319.1 356.67 317.52 355.31 279.98 322.83 273.04 316.83 273.24 316.6 280.18 322.61 317.75 355.1"/><polygon class="cls-27" points="316.64 356.27 318.2 357.64 327.29 365.63 328.84 367 333.01 370.66 333.84 371.39 333.64 371.62 332.8 370.89 328.62 367.21 327.05 365.83 318.02 357.89 316.45 356.51 279.17 323.73 272.28 317.67 272.48 317.44 279.38 323.5 316.64 356.27"/><polygon class="cls-27" points="317.28 359.47 315.61 357.99 278.26 324.75 274.21 321.16 273.48 320.51 273.68 320.28 274.45 320.97 278.46 324.53 315.74 357.7 317.38 359.16 325.79 366.64 327.43 368.09 331.81 371.99 332.64 372.73 332.44 372.95 331.61 372.22 327.15 368.25 325.48 366.77 317.28 359.47"/><ellipse class="cls-1" cx="283.89" cy="388.07" rx="68.62" ry="8.73"/><path class="cls-49" d="m280.48,308.96c-3.05-.74-5.99-1.93-8.69-3.54-.53-.32-1.07-.66-1.44-1.15-.69-.9-.73-2.13-.62-3.26.4-4.13,2.35-7.93,4.27-11.61.55-1.05,1.11-2.13,1.98-2.95,1.44-1.37,3.67-1.75,5.54-1.13,2.94.97,1.41,3.62,1,6.05-.97,5.82-1.65,11.69-2.03,17.59Z"/><path class="cls-22" d="m308.15,301.99c.81.55,1.63,1.12,2.24,1.88,1.19,1.48,1.44,3.49,1.45,5.38.03,3.87-.77,7.75-2.32,11.3-.1.22-.28.49-.51.43s.04-.52.12-.29c.05,2.51-1.24,5-3.31,6.42-.47.32-1.01.6-1.58.57-.51-.02-.97-.29-1.41-.55-2.42-1.46-4.66-3.22-6.65-5.22-.86-.87-1.74-1.94-1.61-3.16.23-2.08,3.29-3.44,2.67-5.43-.15-.48-.5-.87-.86-1.22-1.73-1.74-3.76-3.18-5.97-4.24-.75,2.16-.13,4.57.84,6.64s2.3,3.98,3.09,6.13c.12.32.22.67.09.99-.13.32-.46.5-.78.63-1.42.57-3.05.56-4.46-.03-.6-.25-1.2-.6-1.84-.53-.43.05-.81.28-1.21.44-2.02.8-4.59-.61-5-2.74-.17-.89-.01-1.81-.22-2.69-.41-1.76-2.1-2.87-3.66-3.79-1.8-1.07-4.01-2.15-5.86-1.18-1.41.74-2.01,2.4-2.5,3.92-.25.78-.5,1.61-.32,2.41.15.67.59,1.23,1.06,1.73,1.9,2.02,4.54,3.32,7.29,3.62.36.04.76.08,1.02.34.2.2.26.49.32.77.28,1.31.55,2.63.83,3.94-4.29.33-8.57.66-12.86.99-2.5.19-5.44.21-7-1.76-1.03-1.3-1.12-3.09-1.07-4.75.36-11.56,5.42-22.48,11.56-32.3-9.82,7.64-15.84,19.21-19.72,31.03-.19.57-.39,1.17-.82,1.58-.57.55-1.43.66-2.22.72-2.27.18-4.56.18-6.84-.01-.42-.03-.68-.66-1.04-.87-.64-.36-2.03-1.15-1.23-2.33,1.32-1.95,1.01-3.51,2.23-5.53,1.41-2.32,2.81-4.64,4.22-6.96,1.72-2.85,3.48-5.73,5.88-8.03,1.24-1.19,2.67-2.24,3.64-3.66,1.39-2.02,1.99-4.89,4.26-5.81.65,1.37.75,3,.28,4.44,4.68-4.9,10.97-8.23,17.66-9.35-2.18,5.83-6.61,11.13-6.37,17.35.03.78.16,1.6.66,2.19.45.53,1.13.78,1.78,1.02,2,.73,4.01,1.46,6.01,2.2.77.28,1.67.55,2.35.09.81-.54.77-1.72.65-2.68-.72-6-.88-12.28,1.44-17.86.18-.43.41-.9.84-1.08,3.47-1.51,8.98,4.1,11.38,5.75,4.44,3.05,8.8,6.31,13.37,9.17Z"/><path class="cls-44" d="m259.1,318.39c-1.75-4.82.29-10.18,2.95-14.56s6.03-8.5,7.24-13.48c-7.16,7.66-13.41,16.19-18.55,25.33,1.32-5.47,3.38-10.73,5.43-15.96,1.1-2.81,2.23-5.66,4.06-8.05,3.25-4.25,8.37-6.62,13.41-8.4,1.55-.55,3.75-.8,4.39.71.29.68.1,1.47-.12,2.18-1.72,5.47-5.47,8.64-8.34,13.27-3.79,6.11-7,12.67-10.47,18.97Z"/><path class="cls-22" d="m235.98,266.87c9.07,8.18,13.12,18.68,16.68,30.36,3.46-5.06,7.46-9.75,11.92-13.96.57-.54,1.2-1.17,1.18-1.96-.02-.76-.64-1.36-1.21-1.86-3.67-3.23-7.35-6.46-11.02-9.69-2.06-1.81-5.39-5.6-8.3-5.7-2.34-.08-6.95,4.87-9.25,2.8Z"/><path class="cls-21" d="m305.76,381.96c1.18.79,2.45,1.51,3.31,2.64s1.17,2.83.28,3.94c-.26.33-.61.59-.98.81-2.62,1.57-5.97,1.33-8.89.45s-5.65-2.36-8.6-3.18c-1.38-.38-2.85-.63-4.03-1.44-1.99-1.36-3.85-4.76-4.02-7.16-.16-2.26.04-4.53.25-6.79.02-.21,1.17.36,1.32.21.18-.17.46-.16.71-.14,4.56.3,8.13-4.24,11.11-.27s5.08,7.98,9.54,10.95Z"/><path class="cls-53" d="m254.88,219.06c-7.6,11.1,16.13,19.85,38.56,35.22,22.43,15.37,39.78,35.06,47.39,23.97,7.6-11.1-8.94-34.14-31.38-49.52-22.43-15.37-46.97-20.76-54.57-9.67Z"/><g class="cls-54"><path class="cls-14" d="m254.88,219.06c-7.24,12.95,16.89,20.81,40.17,36.08,23.27,15.27,38.89,33.46,46.13,20.51,1.75-3.14,2.39-6.98,2.02-11.23.07.99.26,5.09-1.17,7.03,0,0-1,.63-1.24-.33s1.83-6.11-5.85-18.28c-7.68-12.17-26.46-30.36-48.29-36.67,0,0-13.09-3.06-19.44-.95-5.44,1.81,3.04.03,11.32-.61-9.7.07-20.18-1.77-23.64,4.44Zm14.89.99c5.82-4.31,23.29.79,40.46,12.03,6.51,4.27,12.47,9.62,17.31,15.69,4.15,5.21,8.94,11.53,10.25,17.85.21,1,.33,2,.34,2.99.04,2.22-1.04,4.83-2.41,6.33-4.26,4.63-9.91.71-14.07-1.95-4.15-2.66-2.77-3.7-.78-4.21,1.99-.51,5.17-3.75-3.96-13.94-9.12-10.19-28.6-20.57-35.98-21.67-7.39-1.1-16.99-8.82-11.17-13.13Z"/></g><path class="cls-3" d="m317.02,252.01c2.59,2.8,5.12,5.79,6.44,9.38,1.32,3.58,1.22,7.9-1.15,10.89-1.12,1.41-2.81,2.86-2.4,4.61.25,1.07,1.26,1.86,1.4,2.95.26,1.99-2.32,3.03-4.33,3.13s-4.55.28-5.22,2.17c-.2.55-.18,1.17-.4,1.71-.6,1.5-2.7,1.79-4.2,1.18s-2.67-1.82-4.08-2.6c-4.8-2.66-10.64.13-16.1.69-11.55,1.17-21.69-8.23-27-18.56-4.04-7.86-5.51-19.68.7-25.98.7-.71,1.6-1.37,2.59-1.27.69.07,1.27.51,1.82.93,6.61,5.03,12.85,11.26,19.46,16.29-4-3.24-8.16-6.68-10.09-11.45-4.94-12.19,6.21-15.18,15.34-12.68,10.72,2.94,19.82,10.59,27.22,18.6Z"/><path class="cls-26" d="m300.38,253.85c-.45.8-1.25,1.34-2.08,1.74-.19.09-.38.17-.59.18-.44,0-.8-.39-.89-.81s.03-.87.22-1.26c.4-.87,1.42-2.14,2.45-2.31,1.42-.24,1.49,1.43.89,2.47Z"/><path class="cls-26" d="m287.38,258.43c-1.43-2.28-3.25-4.32-5.36-5.99-1.95-1.54-4.19-2.82-5.54-4.9-1.97-3.05-1.27-6.74.91-9.42,1.19-1.46,3.26-2.35,3.65-4.2-3.59-.03-9.1,4.48-9.99,7.77-1.5,5.58,12.67,12.99,16.33,16.74Z"/><path class="cls-26" d="m284.61,245.85c-.41.72-1.13,1.21-1.87,1.57-.17.08-.34.16-.53.16-.39,0-.72-.35-.81-.73s.03-.78.19-1.14c.36-.78,1.28-1.93,2.21-2.08,1.28-.22,1.34,1.29.81,2.23Z"/><path class="cls-35" d="m289.71,236.11c10.38,5.34,20.62,11.95,26.79,21.86,1.1,1.77,2.07,3.64,3.55,5.11.73.73,1.58,1.36,2.24,2.16.77.94,1.25,2.09,1.56,3.27-1.75-6.83-4.23-13.8-9.36-18.63-1.15-1.08-2.4-2.03-3.66-2.99-7.73-5.86-15.72-11.84-25.08-14.39-.95-.26-2.47-.77-3.45-.4-1.41.53-.32,1.21.57,1.44,2.43.63,4.59,1.4,6.84,2.56Z"/><path class="cls-23" d="m279.9,277.65c-.56.07-1.15.11-1.67-.12-.62-.28-1-.9-1.31-1.5-1.51-2.92-2.29-6.21-2.24-9.5-.01.87,3.83,2.7,4.54,3.05,1.64.8,3.4,1.39,5.19,1.74s3.64.48,5.46.36,3.63-.91,5.38-1.01c-1.42,2.21-4.57,3.81-6.92,4.82-2.68,1.15-5.55,1.83-8.45,2.16Z"/><path class="cls-5" d="m282.01,272.02s0,0,0,0c0-.02-.02-.03-.03-.05-.04-.05-.08-.1-.12-.14-.06-.05-.13-.09-.2-.13,0,0,0,0,0,0,0,0,0,0,0,0-.32-.14-.75-.1-1.08-.06,0,0,0,0,0,0-.04,0-.08.02-.12.02-.01,0-.03,0-.04,0-.03,0-.07.01-.1.02-.01,0-.02,0-.03,0-.04,0-.08.02-.13.03-.02,0-.03,0-.05.01-.03,0-.06.02-.09.03-.02,0-.03,0-.05.01-.04.01-.08.03-.13.04-.02,0-.03.01-.05.02-.03,0-.06.02-.09.03-.02,0-.03.01-.05.02-.04.01-.09.03-.13.05-.01,0-.03.01-.04.02-.03.01-.06.02-.1.04-.02,0-.04.01-.06.02-.03.01-.07.03-.1.04-.02,0-.04.02-.06.02-.04.02-.07.03-.11.05-.02,0-.04.02-.06.03-.03.01-.06.03-.09.04-.02,0-.04.02-.05.02-.04.02-.08.04-.12.06-.02.01-.04.02-.06.03-.03.01-.05.03-.08.04-.02.01-.04.02-.06.03-.04.02-.08.04-.12.06-.02.01-.04.02-.06.04-.02.01-.05.03-.07.04-.02.01-.04.03-.07.04-.02.01-.05.03-.07.04-.04.02-.07.04-.11.07-.02.01-.04.03-.06.04-.02.02-.05.03-.07.05-.02.01-.03.02-.05.04-.04.03-.08.06-.13.09-.01.01-.03.02-.04.03-.02.02-.05.04-.07.06-.01.01-.03.02-.04.03-.08.06-.16.13-.24.19-.01,0-.02.02-.03.03-.02.02-.05.04-.07.06-.88,2.22,1.51,3.79,4.04,2.98.83-.33,1.41-1.15,2.23-1.47,1.07-.46,2.85-.19,3.34-1.18,0,0,0,0,0,0-.05-.05-.09-.1-.14-.15,0,0,0,0,0,0-.02-.02-.05-.04-.07-.07,0,0,0,0,0,0-.02-.02-.05-.04-.07-.06,0,0,0,0,0,0-.02-.02-.05-.03-.07-.05,0,0,0,0-.01-.01-.02-.02-.04-.03-.07-.05,0,0-.01,0-.02-.01-.02-.01-.04-.03-.06-.04,0,0-.02,0-.02-.01-.03-.02-.06-.03-.09-.05-.09-.04-.17-.08-.26-.11-.03-.01-.07-.02-.1-.04,0,0,0,0,0,0-.03-.01-.06-.02-.09-.03,0,0,0,0,0,0-.03,0-.06-.02-.09-.03,0,0,0,0,0,0-.03,0-.06-.02-.09-.02,0,0,0,0,0,0-.03,0-.06-.01-.09-.02,0,0,0,0-.01,0-.03,0-.06-.01-.09-.02,0,0,0,0-.01,0-.03,0-.06-.01-.08-.01,0,0-.01,0-.02,0-.03,0-.05,0-.08-.01,0,0-.01,0-.02,0-.03,0-.05,0-.08,0,0,0-.02,0-.02,0-.02,0-.05,0-.07,0,0,0-.02,0-.03,0-.02,0-.05,0-.07,0-.01,0-.02,0-.03,0-.02,0-.04,0-.07,0-.01,0-.02,0-.04,0-.02,0-.04,0-.06,0-.01,0-.03,0-.04,0-.02,0-.04,0-.06,0-.02,0-.03,0-.05,0-.02,0-.04,0-.05,0-.02,0-.03,0-.05,0-.02,0-.03,0-.05,0-.02,0-.04,0-.05,0-.02,0-.03,0-.05,0-.02,0-.04,0-.06,0-.01,0-.03,0-.04,0-.02,0-.04,0-.06,0-.01,0-.02,0-.04,0-.02,0-.05,0-.07,0-.01,0-.02,0-.03,0-.02,0-.05,0-.07,0,0,0-.02,0-.03,0-.03,0-.05,0-.08.01,0,0-.01,0-.02,0-.03,0-.06,0-.08.01,0,0-.01,0-.02,0-.03,0-.06.01-.09.02,0,0,0,0-.01,0-.03,0-.06.01-.09.02,0,0,0,0,0,0-.03,0-.06.01-.1.02,0,0,0,0,0,0-.48.11-.95.27-1.39.47,0,0,0,0,0,0,0,0-.02,0-.03.01-.02.01-.05.02-.07.03,0,0,0,0,0,0-.48.23-.94.5-1.33.79,0,0,0,0,0,0-.02.02-.05.03-.07.05,0,0-.01,0-.02.01-.02.01-.03.02-.05.04-.01.01-.03.02-.04.03,0,0-.01.01-.02.02-.04.04-.09.07-.13.11-.06.05-.11.1-.16.15-.01.01-.03.03-.04.04-.04.04-.07.07-.11.11-.02.02-.04.04-.06.06-.03.04-.07.07-.1.11-.02.02-.03.04-.05.05-.05.05-.1.11-.15.16,0,.01-.01.02-.02.03,0,0,0,0,0,0-.01.02-.03.03-.04.04,0,0,0,0,0,0,0,0-.01,0-.02,0,0,0,0,0-.01,0,0,0,0,0-.01,0,0,0,0,0-.01,0,0,0,0,0,0,0,0,0-.02,0-.03,0,0,0,0,0,0,0,0,0,0,0-.01,0,0,0,0,0,0,0,0,0-.01,0-.02,0,0,0,0,0,0,0,0,0,0,0,0,0,0,0,0,0-.01,0,0,0,0,0,0,0,0,0,0,0-.01-.01-.13.15-.26.31-.38.47-.65-1.85,1.21-4.57,3.12-3.62Zm-4.18,2.3c-.01-.16,0-.33.03-.49.06-.29.19-.58.38-.82.13-.17.3-.32.48-.44.13-.08.77-.4.36-.04-.2.21-.37.45-.51.7-.2.35-.33.74-.4,1.14-.02.24-.37.18-.34-.05Zm2.68.72c.11-.15.25-.31.38-.44.28-.27.61-.52.94-.71.97-.55,2.16-.84,3.26-.6.39.09.39.17,0,.26-.3.08-.62.15-.91.23-1.22.3-2.4.81-3.43,1.53-.17.16-.42-.1-.25-.26Z"/><path class="cls-17" d="m280.77,275.29c1.03-.72,2.21-1.23,3.43-1.53.3-.08.62-.15.91-.23.38-.08.38-.17,0-.26-1.11-.23-2.29.06-3.26.6-.34.19-.67.44-.94.71-.13.13-.28.3-.38.44-.17.16.08.42.25.26Z"/><path class="cls-17" d="m278.57,273.22c.14-.25.32-.49.51-.7.4-.36-.23-.04-.36.04-.18.12-.35.27-.48.44-.18.24-.32.52-.38.82-.03.16-.04.33-.03.49-.03.23.32.29.34.05.07-.4.21-.79.4-1.14Z"/><path class="cls-30" d="m281.8,272.18s.14-.01.28,0c-.02-.05-.04-.1-.06-.15h0c-1.9-.96-3.77,1.77-3.12,3.62.12-.16.25-.32.38-.47-.03-.04-.04-.09,0-.14.02-.05.06-.13.08-.18.15-.28.32-.54.53-.78.22-.94.96-1.74,1.92-1.87Z"/><path class="cls-30" d="m283.5,274.78c-.82.33-1.4,1.14-2.23,1.47-2.53.81-4.92-.75-4.04-2.98-.3.28-.57.58-.76.9.08,3.57,4.71,3.44,7.18,1.81,1.24-.47,2.88-.38,3.67-1.6,0,0,0-.01.01-.02-.02-.03-.03-.07-.05-.1-.12-.24-.27-.46-.45-.66-.49.99-2.26.72-3.34,1.18Z"/><path class="cls-37" d="m279.88,274.05c.45-.54,1.03-.99,1.63-1.35.19-.11.42-.24.62-.33-.01-.07-.03-.14-.05-.2-.14,0-.25,0-.28,0-.96.13-1.69.94-1.92,1.87Z"/><path class="cls-37" d="m283.64,275.98c-2.46,1.63-7.09,1.76-7.18-1.81-.07.11-.13.23-.18.35-.11.27-.16.56-.11.85.02.18.04.21.19.32,1.02.83,2.24,1.45,3.51,1.79,1.75.47,3.74.46,5.31-.52.88-.56,1.6-1.35,2.26-2.15.07-.07.06-.09.02-.17-.04-.09-.08-.18-.13-.27,0,0,0,.01-.01.02-.8,1.22-2.43,1.13-3.67,1.6Z"/><path class="cls-26" d="m312.64,282.64c.82-.57,1.79-.87,2.69-1.29s1.78-1.05,2.15-1.97c.66-1.66-.56-3.52-.32-5.29-.11.77,2.55,3.02,3.12,3.47.61.49,1.33.72,1.95,1.16.81.57.35.74-.42,1.33-2.59,1.96-5.94,2.92-9.17,2.59Z"/><path class="cls-19" d="m264.67,230.58c1.77.16,2.92,1.55,2.85,4.61-.06,2.72-2.31,5-3.94,4.6-1.73-.42-2.88-2.13-2.45-4.81.45-2.85,2.41-4.51,3.55-4.41Z"/><path class="cls-46" d="m264.87,231.65c1.29.86-.12,6.97-1.65,6.64-1.34-.29-2.18-1.68-1.46-4.07.55-1.83,1.95-3.34,3.1-2.57Z"/><path class="cls-48" d="m264.04,231.58c.15.14-.32.77-.7,1.55-.37.78-.48,1.35-.79,1.29-.2-.04-.28-.73.11-1.5.47-.92,1.15-1.54,1.38-1.34Z"/><path class="cls-48" d="m264.72,230.91c.09.1.04.28-.09.42-.14.13-.32.16-.4.07-.09-.1-.04-.28.09-.42.14-.13.32-.16.4-.07Z"/><path class="cls-26" d="m309.14,285.55c0,.14,0,.3-.1.41-.09.11-.24.14-.38.16-1.24.19-2.51.09-3.77-.04,1.27.58,2.54,1.16,3.81,1.74.39.18.83.36,1.24.21.65-.23.75-1.09.74-1.78,0-.48-.01-.96-.02-1.45,0-.6-.09-2.03-1.05-1.74-.77.23-.47,1.9-.48,2.48Z"/><path class="cls-42" d="m279.78,301.38c-.77-1.97-.69-4.17-.4-6.26s.78-4.17.79-6.29l-1.7,3.39c-.04-1.29.08-2.59.37-3.85-1.22,1.02-2.23,2.3-2.93,3.72-.22.44-.41.9-.71,1.29-.32.41-.76.73-1.1,1.12-.78.9-1.04,2.12-1.28,3.29.15-2.14,1.18-4.12,2.35-5.92,1.17-1.8,2.5-3.51,3.4-5.46.19-.4.39-.86.8-1.02.41-.16.86.03,1.25.21,1.28.59,1.75,1.05,1.35,2.37-.45,1.46-.71,3.02-.99,4.52s-.53,2.98-.73,4.47c-.1.75-.19,1.5-.27,2.25-.06.52-.39,1.68-.2,2.16Z"/><path class="cls-52" d="m274.83,291.51c-.48.72-.99,1.42-1.37,2.2-.62,1.3-.81,2.76-.95,4.19-.11,1.1-.19,2.19-.25,3.29-.02.46-.04.92.1,1.36.17.52.55.93.94,1.31,1.32,1.3,2.81,2.43,4.42,3.34-2.28-.84-4.43-2.04-6.34-3.54-.22-.17-.44-.35-.55-.6-.16-.35-.08-.76,0-1.13.29-1.33.59-2.67.88-4,.28-1.29.57-2.58,1.02-3.82.48-1.3,1.14-2.52,1.89-3.67.65-.99,1.44-2.46,2.4-3.15-.38,1.47-1.37,2.98-2.2,4.24Z"/><path class="cls-53" d="m329.36,242.06c1.04.87,1.93-8.61,1.93-8.61,0,0,2.38-4.14,0-8.08-2.37-3.94-12.15-13.7-17.43-10.19-5.28,3.51-15.61,4.62-8.92,7.13s18.71,11.08,24.41,19.76Z"/><path class="cls-2" d="m320.1,216.67s-3.74-1.99-6.73-.38c-2.98,1.62-6.58,4.2-6.58,4.2l2.05.9,5.37-3.81s2.48-2.31,5.9-.91Z"/><path class="cls-6" d="m321,333.55c6.65-1.23,13.14-5.95,14.25-12.62.42-2.55.04-5.17-.36-7.72-.48-3-.98-6-1.52-8.99-3.99,2.57-3.8,8.95-7.63,11.76,0-3.73,0-7.46,0-11.19-4.22,6.65-8.53,13.39-14.44,18.59-1.04.91-2.13,1.78-3.08,2.78-.58.61-1.13,1.3-1.91,1.62-.72.3-1.52.25-2.29.4-1.17.23-3.45,1.48-2.9,2.96s4.6,1.67,5.89,1.92c4.6.86,9.35,1.36,13.99.5Z"/><path class="cls-7" d="m321.1,298.23c.38-2.17.78-4.4,2.02-6.22,2.42-3.56,7.39-4.5,11.63-3.72,4.24.78,8.09,2.91,12.17,4.29s8.82,1.95,12.51-.27c-.81,4.81-4.4,9.04-9.01,10.62-2.9,1-6.1,1.01-8.88,2.3-4.03,1.87-6.56,6.55-5.92,10.95-1.29-3.74-2.07-7.65-2.33-11.59-2.88,3.44-5.2,7.35-6.84,11.53-.16-4.32-.32-8.64-.49-12.95-1.29,2.4-2.54,4.84-3.88,7.21-.76,1.35-1.67,3.79-2.93,1.68-.93-1.56.37-4.79.66-6.45.43-2.46.86-4.91,1.29-7.37Z"/><path class="cls-28" d="m341.73,291.72s0,0,0,0c-5.04,2.25-8.21-3.22-12.58,5.34-.9,2.55-1.47,5.26-2.67,7.72-.06.15-.12.29-.18.44-.04-.83-.1-1.53-.2-1.7-.16-.09-.45.11-.57.22-.14.12-.28.25-.4.38-1.56,1.61-2.8,3.54-4.48,5.02.15-.87.33-1.73.49-2.6,2.45-3.28,3.59-8.09,4.64-11.58.17-.25.1,1.24.1,1.28.01.18.4,2.06.38,2.07.75-2.88,2.26-5.75,5-7.1,3.48-2.17,7.49,2.83,10.33-.52.16-.11.32-.24.49-.38-.03.31-.07.63-.16.93-.05.17-.11.32-.18.47Z"/><path class="cls-31" d="m331.25,291.22c-2.74,1.35-4.25,4.22-5,7.1.02,0-.37-1.89-.38-2.07,0-.04.07-1.53-.1-1.28-1.04,3.49-2.19,8.3-4.64,11.58.12-.65.22-1.29.3-1.94v-.11s0-1.41,0-1.41c.15-.69.29-1.43.4-2.12.2-1.14.35-2.31.63-3.44.49-1.88,1.55-3.57,2.77-5.06.67-.9,1.5-1.66,2.42-2.3-.36.82-.59,1.7-.72,2.58-.07.48-.11.99-.14,1.47,0,.11-.1.66.13.42.35-1.03.7-2.09,1.21-3.06.2-.37.58-.63.89-.92,1.84-1.56,4.75-2.38,6.83-.82h0c1.98,1.49,3.69,2.3,5.74.87-2.84,3.36-6.85-1.65-10.33.52Z"/><path class="cls-28" d="m341.42,303.54c-.52-.19,2.4-3.21,2.51-3.33,1.54-1.94,3.24-4.14,5.57-5.59,0,0,.02-.01.03-.02-.25.42-.51.84-.78,1.24-.3.48.1,1.06.52,1.55-1.42,1.83-2.25,3.51,1.34,2.41,2.76-.6,4.95-3.26,7.1-5.16-.27.8-.35,1.68-.56,2.5,0,0,0,0,0,0-3.59,3.96-8.06,6.21-15.73,6.41Z"/><path class="cls-31" d="m350.61,299.8c-3.59,1.1-2.76-.58-1.34-2.41.11.13.23.26.34.38.54.18,1.44.51,1.94.29.72-.26,1.29-.71,1.92-1.08,1.48-.94,2.98-1.93,4.47-2.87-.09.17-.16.34-.22.52-2.15,1.9-4.34,4.56-7.1,5.16Z"/><path class="cls-26" d="m304.26,330.12c1.94.22,3.98-.39,5.58-1.39.56-.35,1.06-.76,1.48-1.21,5.1-.2,8.99-1.98,12.06-4.58-.39,1.02-.77,2.03-1.07,3.06-.17.87,1.07.84,1.8.43,1.5-.78,2.73-1.84,3.96-2.85,1.91-1.63,3.78-3.34,5.38-5.15-.25,1.45-.45,2.9-.63,4.36-.88,1.47-1.9,2.87-3.32,4.07-3.7,3.84-8.97,6.5-14.96,6.87"/><path class="cls-35" d="m325.14,327.36c-.7,1.4-1.54,2.7-2.36,4-2.64,1.61-5.48,2.14-8.49.71"/><path class="cls-11" d="m287.4,322.14c-.39-.06-.8-.09-1.18.03-1.65.52-1.44,3.06-2.7,4.24-.34.32-.77.52-1.1.84-.77.73-.87,1.9-.93,2.96-.03.55-.04,1.15.31,1.57.22.26.55.4.83.61,1.32,1,1.19,3.39,2.72,4.03.46.19,1.02.18,1.4.51.49.43.43,1.19.62,1.82.48,1.61,2.58,2.13,4.22,1.79,2.77-.56,5.02-2.69,6.36-5.18s1.9-5.31,2.33-8.1c.05-.33.1-.69-.05-.99-.13-.28-.4-.46-.65-.64-1.55-1.07-3.55-3.73-5.53-3.47-.87.11-1.62.67-2.54.72-1.4.07-2.74-.54-4.1-.75Z"/><path class="cls-26" d="m288.18,336.73c.63.23,1.25-.03,1.71-.53.16-.18.3-.39.41-.63,1.61.14,2.76-.7,3.61-2.07-.07.57-.14,1.15-.19,1.73-.01.5.38.55.59.34.44-.38.78-.94,1.12-1.47.53-.86,1.03-1.76,1.45-2.74,0,.84,0,1.68.02,2.52-.21.81-.46,1.59-.85,2.22-.99,2.06-2.53,3.35-4.42,3.27"/><path class="cls-35" d="m296.85,334.42c-.41.94-.89,1.82-1.36,2.7-1.43,1.14-2.94,1.58-4.47.73"/><path class="cls-26" d="m292.93,322.47c-1.08.09-2.21.07-3.21-.36-.32-.14-.62-.31-.95-.43-.43-.15-.9-.19-1.36-.11-.24.04-.47.11-.65.27-.32.27-.41.73-.37,1.14.09,1.07.86,2.01,1.81,2.51s2.06.62,3.14.57c.91-.04,1.84-.2,2.6-.69.79-.51,1.35-1.38,1.48-2.31.07-.47-.03-1.73-.72-1.63-.32.05-.44.56-.68.73-.33.22-.69.29-1.08.32Z"/><path class="cls-35" d="m291.99,323.77c-.52.05-1.06.03-1.55-.18-.15-.07-.3-.16-.46-.21-.21-.08-.43-.1-.65-.06-.11.02-.23.06-.31.13-.15.13-.19.36-.18.57.04.54.41,1,.87,1.25s.99.31,1.51.28c.44-.02.88-.1,1.25-.35.38-.26.65-.69.71-1.16.03-.24-.01-.87-.35-.82-.15.02-.21.28-.33.36-.16.11-.33.14-.52.16Z"/><path class="cls-35" d="m261.79,250.34c-.44,1.74-.51,3.55-.42,5.34.11,2.28.47,4.54.82,6.79.27,1.69.54,3.4,1.22,4.97.58,1.35,1.45,2.56,2.14,3.86.7,1.32,1.22,2.74,2.09,3.96,1.1,1.55,2.81,2.91,2.9,4.81-1.39-.71-2.44-1.94-3.46-3.14-1.45-1.71-2.89-3.42-4.34-5.13-1.15-1.36-2.31-2.73-3.25-4.25-2.6-4.19-3.39-9.28-3.4-14.21,0-1.53.07-3.06.43-4.55.43-1.79,1.28-3.49,2.46-4.9.82-.98,1.86-1.87,3.12-2.13,1.94-.4,3.7.83,2.55,2.66s-2.31,3.74-2.87,5.91Z"/><path class="cls-8" d="m247.65,258.63c.65-.63,1.3-1.34,1.54-2.21.13-.47.1-1.06-.3-1.33-.2-.14-.45-.17-.69-.19-2.46-.22-4.96.1-7.29.93-2.5.89-4.94,2.4-7.58,2.14-2.9-.28-5.19-2.6-7.99-3.39-1.91-.53-3.93-.33-5.9-.11-.99.11-2.07.26-2.75.99-.78-.44-1.62-.89-2.52-.84s-1.8.85-1.62,1.73c.1.48.48.84.87,1.15,4.65,3.63,11.63,2.33,16.67,5.38.55.33,1.08.72,1.7.91.67.21,1.38.18,2.08.14,1.84-.09,3.68-.18,5.52-.27.39-.02.79-.04,1.17-.14.47-.12.89-.37,1.31-.61,1.83-1.05,4.59-2.49,5.79-4.29Z"/><path class="cls-26" d="m245.55,257.43c-3.64,1.06-7.34,2.12-11.14,2.19-1.89.03-3.94-.26-5.27-1.6-.12-.12-.23-.25-.28-.41-.12-.44.36-.85.82-.87s.88.22,1.3.41c2.59,1.15,5.6.34,8.27-.6,2.02-.72,4.1-1.55,6.27-1.62,2.76-.09,2.31,1.85.03,2.51Z"/><path class="cls-35" d="m340.45,230.83c.82-2.19,1.63-4.44,1.6-6.78-2.22.6-4.35,1.46-6.48,2.32-5.16,2.08-10.31,4.17-15.47,6.25.48-.19,5.8,5.75,6.45,6.37,2.17,2.09,4.31,4.26,6.6,6.22,1.53,1.32,1.56.63,2.23-1.1.56-1.44,1.12-2.88,1.67-4.32,1.15-2.99,2.28-5.98,3.39-8.98Z"/><path class="cls-35" d="m302.26,206.95c.11-2.01-.42-5.35-1.06-7.24-1.73,1.1-4.35,2.81-5.94,4.1-3.83,3.12-6,7.12-9.83,10.24.36-.29,6.2,2.1,6.92,2.43,2.4,1.1,4.95,1.78,7.42,2.75,1.65.65,1.59,1.53,1.71-.06.09-1.32.19-2.65.28-3.97.18-2.75.35-5.5.51-8.24Z"/><path class="cls-37" d="m333.85,235.73c.59-1.47,1.29-3.01,1.08-4.58-3.91.94-7.09,4.02-11.06,4.67.71-.12,2.78,2.12,3.32,2.63,1.12,1.05,1.98,2.27,3.02,3.39,1.44,1.54,1.56.43,2.04-1.32.45-1.62.97-3.22,1.6-4.79Z"/><path class="cls-30" d="m330.77,239.71c.72-1.92,1.45-3.95,1.15-5.98-1.12-.51-2.35.31-3.53.67-1.36.41-2.97.23-4.07,1.12-.11.09-.23.22-.21.36.01.1.09.19.17.26,1.23,1.21,2.45,2.43,3.68,3.64,1.6,1.59,1.92,2.32,2.81-.08Z"/><path class="cls-12" d="m330.33,238.06c.26-1.06.27-2.17.47-3.24-1.56.46-3.18.7-4.81.71-.43,0-.93.02-1.2.35-.41.5.02,1.24.49,1.68,1.8,1.68,4.14,4.21,5.05.5Z"/><path class="cls-10" d="m335.28,240.95c.65-1.99,1.29-3.98,1.94-5.98.79-2.43,1.58-4.87,2.32-7.31.15-.49.18-1.21-.32-1.34-.13-.03-.27,0-.41.02-.67.12-1.34.25-2.01.37-.16-.52.33-1,.79-1.3.9-.57,1.89-1,2.93-1.25.4-.1.84-.16,1.21.03.42.22.62.75.59,1.22s-.23.93-.43,1.36c-1.31,2.88-2.49,5.82-3.59,8.79-.55,1.48-1.08,2.98-1.61,4.47-.26.73-.51,1.47-.76,2.2-.12.35-.43,1.95-.76,2.09-1.27.52,0-3.04.1-3.38Z"/><path class="cls-49" d="m261.54,281.7c2.57-.29,5.15-.57,7.74-.57,1.66,0,3.34.13,4.91.65s3.05,1.47,3.97,2.85c-1.01.4-2.02.8-3.03,1.21-3.25,1.29-6.5,2.59-9.65,4.12-2.65,1.28-5.29,2.79-7.15,5.08-.14-2.87-.28-5.75-.75-8.59-.13-.78-.32-1.52-.7-2.22-.41-.76-.84-.98-.01-1.52,1.22-.81,3.26-.85,4.67-1Z"/><path class="cls-9" d="m301.01,216.9c.02-1.93.04-3.87.06-5.8.03-2.36.05-4.72.04-7.08,0-.48-.15-1.13-.57-1.14-.11,0-.22.05-.32.1-.49.25-.99.51-1.48.76-.25-.44.02-.97.3-1.34.56-.71,1.24-1.3,1.99-1.75.29-.17.62-.33.95-.23.39.11.67.54.76.98s.04.88,0,1.32c-.33,2.88-.53,5.78-.68,8.68-.07,1.46-.13,2.91-.17,4.37-.02.72-.04,1.43-.06,2.15,0,.34.14,1.85-.08,2.04-.87.74-.75-2.74-.74-3.06Z"/><path class="cls-37" d="m297.65,212.8c.01-1.35.08-2.78-.43-4.07-2.22,1.49-3.47,4.67-5.79,5.93.41-.23,2.25,1.29,2.72,1.63.96.69,1.79,1.57,2.71,2.32,1.27,1.05,1.08.08.96-1.48-.11-1.45-.18-2.9-.16-4.34Z"/><path class="cls-30" d="m296.69,216.72c-.02-1.75-.05-3.6-.73-5.26-.82-.23-1.4.68-2.05,1.2-.75.59-1.8.72-2.28,1.68-.05.1-.09.23-.04.35.03.09.1.14.17.19,1.06.81,2.12,1.61,3.19,2.42,1.39,1.06,1.76,1.62,1.74-.57Z"/><path class="cls-4" d="m296.01,215.41c-.09-.94-.36-1.88-.49-2.83-.87.67-1.82,1.16-2.84,1.46-.27.08-.57.18-.66.51-.13.49.31,1.04.71,1.33,1.53,1.1,3.61,2.82,3.28-.48Z"/><path class="cls-52" d="m257.48,282.93c.32-.34.82-.45,1.29-.52,1.11-.17,2.23-.24,3.34-.31,2.56-.16,5.13-.33,7.69-.21-3.33.32-6.64.88-9.89,1.67-.13.03-.28.07-.34.19-.06.1-.04.23-.02.35.24,1.37.34,2.76.3,4.15-.04,1.23-.05,2.94-.58,4.05-.39-.43-.1-1.47-.11-2.01,0-.85-.07-1.71-.2-2.55-.25-1.67-.75-3.3-1.48-4.82Z"/><path class="cls-42" d="m264.03,289.76c1.06-1.56,2.74-2.5,4.45-3.21s3.52-1.24,5.1-2.2l-3.42.1c.94-.63,1.97-1.12,3.06-1.45-1.4-.58-2.88-.86-4.32-.81-.44.02-.89.06-1.34-.02-.48-.09-.94-.32-1.42-.43-1.08-.26-2.13.08-3.12.41,1.67-.85,3.69-.88,5.65-.7s3.93.54,5.86.42c.4-.03.84-.06,1.18.22.33.28.43.75.51,1.17.24,1.36.14,1.98-1.05,2.24-1.33.29-2.62.78-3.89,1.22s-2.49.91-3.71,1.42c-.61.26-1.22.52-1.82.8-.42.19-1.46.43-1.72.82Z"/><path class="cls-34" d="m249.22,251.07c-13.58-.28-27.16-.15-40.74-.01-.42.89-.11,1.99.54,2.73s1.58,1.17,2.51,1.47c.28.09.59.17.87.09.23-.07.42-.24.62-.37.91-.58,2.11-.3,3.12.1.2.08.42.17.64.14.26-.03.47-.2.68-.35,1.06-.71,2.41-.8,3.68-.72,2.62.15,5.21.88,7.53,2.11.85.45,1.67.97,2.58,1.28,1.3.44,2.7.41,4.07.37,1.21-.03,2.43-.08,3.59-.42,1.46-.42,2.75-1.28,4.11-1.99,1.35-.7,2.8-.74,4.16-1.31.52-.22,1-.61,1.36-1.04.12-.14,1.14-2.08.69-2.09Z"/><path class="cls-29" d="m208.08,252.68c.39.54.99.87,1.56,1.19.73.4,1.45.8,2.18,1.2.22.12.47.25.72.19.26-.07.42-.31.61-.5.59-.57,1.54-.54,2.32-.3s1.53.64,2.35.7c.8.06,1.59-.21,2.37-.39,2.24-.51,4.57-.25,6.86,0,.99.11,2,.23,2.89.67,1.07.53,1.92,1.48,3.05,1.86.88.29,1.83.21,2.75.1,2.36-.26,4.72-.61,7.06-1.04.59-.11,1.2-.23,1.7-.55.96-.61,1.36-1.79,1.69-2.89.13-.42.25-.9.02-1.27-.27-.44-.89-.5-1.41-.5-10.43-.1-20.87-.2-31.3-.3-1.21-.01-7.41-.94-5.42,1.81Z"/><path class="cls-29" d="m245.81,249.84c-.04.12-.08.24-.18.32-.12.11-.31.13-.48.14-9.06.52-18.13.94-27.2.58-.66-.03-1.34-.06-1.96-.32-.65-.28-1.17-.78-1.65-1.3-1.25-1.35-2.35-2.84-3.27-4.43-.61-1.07-1.16-2.23-1.13-3.46,0-.24.04-.5.22-.65.17-.15.42-.17.66-.17,6.39-.15,12.79-.26,19.19-.33,3.13-.03,6.27-.05,9.4-.06,1.63,0,3.26,0,4.9,0,.89,0,3.14-.43,3.65.43.55.95-.37,3.42-.63,4.41-.42,1.64-.97,3.26-1.52,4.86Z"/><path class="cls-34" d="m218.9,241.35c-.73.09-1.49.21-2.09.64-1.07.77-1.29,2.27-1.33,3.59-.03.84-.03,1.71.32,2.48.44.98,1.36,1.63,2.25,2.24-1.29.09-2.49-.7-3.35-1.66s-1.49-2.11-2.34-3.08c-.67-.77-1.48-1.43-1.97-2.32-.21-.38-.36-.84-.23-1.26.25-.77,1.25-.94,2.06-.97,1.6-.06,3.2-.12,4.8-.14,1.18-.01,3.61-.41,4.61.21-.89.16-1.83.15-2.73.26Z"/><path class="cls-16" d="m280.59,337.27h0c.18.46.69.68,1.14.49.44-.18.66-.68.49-1.13h0c-.17-.47-.68-.69-1.13-.52-.45.17-.68.68-.5,1.13,0,0,0,.01,0,.02Z"/><path class="cls-16" d="m282.98,343.46v.02c.16.42.63.64,1.05.49.42-.15.64-.61.49-1.03v-.02c-.15-.43-.62-.65-1.04-.51-.43.15-.65.61-.51,1.04,0,0,0,.01,0,.01Z"/><path class="cls-16" d="m285.11,349.73h0c.13.41.56.63.95.5.39-.13.61-.54.5-.93h0c-.12-.41-.54-.65-.94-.53-.4.12-.64.54-.52.94,0,0,0,.02,0,.02Z"/><path class="cls-16" d="m286.9,356.09h0c.09.38.47.61.85.52.37-.09.59-.46.51-.83h0c-.08-.39-.46-.63-.83-.54-.38.08-.62.46-.53.83,0,0,0,.01,0,.02Z"/><path class="cls-16" d="m288.15,362.56v.02c.05.35.37.6.72.55.35-.05.59-.36.55-.71v-.02c-.04-.35-.36-.6-.71-.56-.35.04-.6.36-.56.71,0,0,0,0,0,.01Z"/><path class="cls-16" d="m288.33,369.05v.02c-.05.33.18.63.51.67.33.04.63-.18.67-.51h0s0-.02,0-.02c.04-.33-.19-.62-.51-.67-.32-.04-.62.19-.67.51Z"/><path class="cls-16" d="m285.49,338.14s.03.03.03.05c4.14,8.01,7.11,31.16,7.17,31.49,0,.02,0,.05,0,.07-.02.06-.06.11-.13.12-.09.02-.18-.04-.19-.13-.06-.33-3.01-23.37-7.13-31.37l.25-.22Z"/><path class="cls-20" d="m269.19,364.32c.47,2.44.85,4.95,1.96,7.17,1.12-.42,2.24-.83,3.36-1.25.3-.11.61-.23.82-.48.26-.3.3-.72.32-1.11.06-1.69-.24-3.39-.86-4.96-.5-1.25-1.21-2.42-1.62-3.7-.71-2.24-.46-4.73-1.43-6.87-.41-.91-1.03-1.72-1.63-2.51-1.62-2.12-3.25-4.25-4.97-6.29-1.36-1.61-3.41-4.75-5.4-5.47,4.01,8.35,7.68,16.3,9.45,25.49Z"/><path class="cls-21" d="m277.28,381.15c.08.78.13,1.63-.29,2.3-.32.51-.86.82-1.39,1.1-5.66,2.99-12.39,3.88-18.63,2.47-1.91-.43-3.82-1.1-5.32-2.36s-2.53-3.2-2.3-5.14c.04-.34.13-.7.41-.9.26-.19.6-.18.92-.19,4.28-.05,8.07-2.89,10.74-6.24.27-.34.55-.71.94-.91.39-.2.84-.22,1.28-.24,2.02-.08,4.04-.15,6.06-.23,1.3-.05,4.46-.77,5.57-.04s1.06,3.34,1.25,4.51c.3,1.9.76,3.94.76,5.87Z"/><path class="cls-44" d="m236.18,267.74l6.25,7.31s3.88-.55,4.26-4c.39-3.45,2.64-4.57,2.64-4.57l-4.41-4.46s-6.5,1.59-8.74,5.74Z"/><path class="cls-15" d="m237.14,268.85s2.93-3.98,8.77-5.86l.92.93s-4.53.85-8.99,5.74l-.7-.81Z"/><path class="cls-20" d="m253.52,283.95c-.74-1.7-1.49-3.42-2.69-4.83.7,2.77,1.16,5.61,1.36,8.46-1.24-1.56-2.48-3.11-3.73-4.67.26,5.08,3.2,9.75,3.4,14.83-.02-.53,2.33-2.52,2.74-3.01.68-.82,1.81-1.89,1.95-3,.28-2.25-2.15-5.76-3.03-7.78Z"/><path class="cls-20" d="m299.13,302.65c-.27.8-1.17,1.21-2,1.35s-1.72.12-2.48.48c1.76.69,3.52,1.38,5.28,2.08-1.51.35-3.07.5-4.62.45,1.09,1.24,2.46,2.24,3.97,2.9-1.15.25-2.35.39-3.51.2-2.35-.39-4.27-2.09-5.79-3.92-.34-.41-2.34-2.03-2.38-2.37-.13-1.08,1.66-.83,2.64-.92,2.95-.26,5.92-.34,8.88-.25Z"/><path class="cls-20" d="m305.79,321.7c-.56,1.31-1.32,2.76-2.7,3.06-1.67.36-3.17-1.18-4.87-1.37,1.36,1.35,2.72,2.7,4.09,4.05.3.3.61.6.99.8.9.46,2.03.22,2.85-.38s1.36-1.48,1.82-2.38c2.66-5.17,3.11-11.15,3.52-16.94.05-.7-.07-4.91-1.59-3.93-.69.44-.38,4.71-.51,5.6-.59,3.99-2.02,7.8-3.59,11.5Z"/><path class="cls-44" d="m304.71,328.76l4.28-8.53s-2.34-4.83-6.23-4.37c-3.89.46-6.11-2.12-6.11-2.12l-2.82,6.91s5.41,6.37,10.89,8.1Z"/><path class="cls-15" d="m304.71,328.76s-5.61-2.66-10.25-9.65l.59-1.44s2.96,5.58,10.23,9.97l-.56,1.12Z"/><path class="cls-33" d="m263.29,216.98c.09-.11.23-.09.3.03.23.39.34.78.31,1.19.26-.4.67-.68.93-1.09.05-.08.19-.07.22.02.15.43.25.93.29,1.4.09-.08.19-.14.29-.23.28-.26.52-.57.7-.91.07-.13.24-.19.34-.06.26.32.44.7.63,1.07.18-.18.42-.33.61-.49.3-.25.61-.51.89-.78.08-.08.23-.06.29.03.26.36.47.77.56,1.21.39-.5.92-.91,1.43-1.25.09-.06.22-.05.27.06.18.4.34.83.42,1.27.46-.5,1.19-.89,1.73-1.21.1-.06.23.02.27.11.28.52.56,1.05.84,1.57.35-.51.78-.98,1.15-1.47.09-.13.26-.06.3.07.16.57.39,1.14.53,1.72.27-.55.99-.95,1.47-1.17.18-.08.37.07.36.26-.05.58-.13,1.15-.15,1.73.62-.65,1.42-1.06,2.32-1.24.09-.02.21.04.23.13.16.56.34,1.14.38,1.73.21-.3.54-.54.82-.72.44-.28.95-.46,1.47-.48.13,0,.21.12.24.23.13.47.29.99.31,1.5.26-.29.61-.52.94-.71.35-.21.9-.6,1.29-.28.43.36.66,1.22.88,1.72.01.03.08.17.13.34.38-.21.82-.33,1.22-.49.41-.16.89-.42,1.35-.46,0-.21.29-.33.42-.15.3.44.47.96.72,1.43.23.44.51.87.72,1.32.44-.12.94-.09,1.39-.2.56-.13,1.07-.39,1.6-.61.2-.08.35.15.23.31.54.29.84.92,1.19,1.41.37.53.82,1.07,1.11,1.66.82-.3,1.66-.56,2.49-.83.32-.1.58-.26.87-.07.39.24.67,1.21.83,1.61.24.57.44,1.18.48,1.8.7-.1,1.4-.17,2.1-.23.41-.04,1.19-.26,1.58-.08.77.35.99,1.89,1.19,2.73.04-.03.09-.06.14-.07.44-.13.88-.17,1.33-.19.48-.02,1.01-.07,1.48,0,.16-.07.39,0,.44.22.29,1.18.57,2.4.73,3.61.75-.03,1.51.01,2.26.08.59.05,1.83-.03,2.33.36.59.47.34,2.44.21,3.38.6-.06,1.22,0,1.82.02.67.04,1.37.04,2.01.25.04.01.07.04.09.07.03.02.05.05.06.1.07.71.04,1.44.07,2.16.02.54.04,1.09-.02,1.63.95-.32,2.06-.41,3-.57.18-.03.37.13.34.32-.17,1.05-.29,2.22-.69,3.24,1.09,0,2.21-.05,3.28.09.16-.13.47-.05.44.22-.06.66-.17,1.3-.39,1.92-.1.3-.24.58-.36.87-.02.05-.04.09-.05.13.63-.06,1.26-.07,1.88-.1.3-.02.97-.19,1.19.14.23.34-.13.94-.25,1.26-.21.58-.4,1.18-.64,1.75.33-.07.67-.11,1.02-.1.37.01,1.14.04,1.36.39.24.38-.18,1.13-.3,1.48-.21.6-.4,1.27-.69,1.85.69.11,1.38.22,2.07.32.35.05,1.13-.01,1.35.34.19.32,0,1-.14,1.32-.27.66-.8,1.18-1.15,1.8.85-.07,1.8,0,2.62.06.19.01.29.24.17.39-.35.47-.55,1.37-.77,1.9-.23.55-.47,1.09-.72,1.63.28-.01.57.03.82.04.65.04,1.3.11,1.94.2.27.04.26.42.03.47,0,.02.01.03.01.05-.14.99-.78,2.12-1.38,3.04.43-.04.87-.02,1.28-.02.48,0,1.08-.09,1.52.12.06-.01.12.03.13.09.01.04,0,.08-.02.11-.2.59-.56,1.13-.9,1.64-.19.28-.37.6-.58.88.22-.06.45-.11.66-.17.54-.13.87-.27,1.42-.22.15.01.2.24.04.3-.14.05-.79,1.13-1.11,1.57-.23.32-.43.67-.65,1.01.21-.06.43-.11.63-.16.37-.1.73-.19,1.1-.27.17-.04.25.21.11.29-.28.77-.88,1.54-1.44,2.2.47-.03.98.06,1.41.1.15.01.97-.04.88.23-.4,1.26-1.28,2.34-1.93,3.58-.11.22-.41-.09-.29-.28.63-1,1.25-1.96,1.69-3.06-.15-.05-1-.02-1.1-.03-.35-.02-.71,0-1.05-.11-.19.09-.42-.12-.28-.34.41-.66.9-1.48,1.49-2.08-.14.04-.27.09-.41.13-.36.1-1.5.38-1.46.22.17-.62.56-1.17.93-1.7.28-.41.58-.8.98-1.09-.25.05-.49.1-.74.16-.52.13-1.05.37-1.58.42-.05,0-.1-.02-.15-.05,0,0,0,0,0,0-.03-.02-.05-.06-.06-.09,0,0,0,0,0-.01-.01-.03-.01-.07,0-.1,0,0,0-.02,0-.03.17-.61.64-1.14.99-1.66.26-.37.53-.76.84-1.09-.34.04-.71,0-1.03.01-.53,0-1.1.04-1.63-.05-.03.04-.05.08-.08.12-.13.2-.48.02-.37-.2.02-.03.04-.07.05-.1,0-.06.03-.12.08-.16.24-.47.5-.94.75-1.41.32-.6.59-1.3,1.02-1.82-.57-.07-1.14-.12-1.71-.13-.48-.02-1.09.11-1.49-.17-.06-.04-.07-.13-.02-.18,0-.03,0-.06.02-.09.25-.66.53-1.31.81-1.96.13-.3.26-.6.4-.9.07-.17.23-.42.34-.65-.89.1-1.92.12-2.72-.14-.12-.04-.16-.17-.12-.27,0-.03-.01-.07,0-.11.19-.93,1.33-1.66,1.35-2.58.01-.56-1.17-.52-1.59-.58-.54-.08-1.08-.17-1.62-.25-.07.02-.15.02-.22,0-.04,0-.07-.02-.11-.02-.11-.03-.14-.16-.12-.26.23-.93.64-1.87,1-2.76.03-.08.07-.16.1-.24.17-.24.16-.3-.02-.18-.19-.1-.52-.09-.73-.1-.5-.02-.98.08-1.45.25-.37.14-.62-.42-.24-.56.03,0,.05-.02.08-.03.1-.37.22-.74.35-1.1.17-.48.61-1.22.63-1.71.09-.18.06-.18-.09.02-.15,0-.29.01-.44.02-.29.01-.58.02-.87.04-.42.02-.85.04-1.27.04-.08.05-.17.05-.26,0-.05,0-.09,0-.14,0-.24-.01-.27-.36-.08-.45.01-.27.2-.56.3-.82.26-.64.45-1.32.57-2.01-1.13.11-2.31.04-3.44.03-.24,0-.28-.26-.17-.42.07-1,.33-2,.5-3-.94.23-1.98.52-2.93.51-.14.07-.31.07-.41-.03-.09-.04-.12-.13-.09-.22-.05-.66.03-1.32.12-1.98.09-.64.14-1.3.25-1.94-.59.04-1.18-.04-1.77-.07-.69-.03-1.41.03-2.09-.06-.17-.02-.25-.18-.22-.32-.05-.43-.08-.86-.08-1.3,0-.82.23-1.63-.72-1.95-1.08-.37-2.5-.19-3.67-.26-.17.12-.46.06-.53-.21-.31-1.18-.52-2.41-.69-3.63-.41.07-.84.06-1.25.08-.45.03-.89.07-1.33.2-.1.03-.21-.02-.28-.1-.08.05-.19.04-.23-.08-.17-.52-.35-1.04-.52-1.56-.05-.14-.08-.3-.14-.44-.28-.65-.5-.6-1.17-.56-1,.07-2.01.16-3.01.16-.09,0-.14-.06-.15-.13,0,0,0,0,0,0-.22-.48-.34-.99-.5-1.49-.13-.38-.26-1.22-.55-1.49-.59-.53-2.55.53-3.23.73-.01,0-.02,0-.04,0-.06.02-.13.02-.19-.03-.55-.48-.94-1.17-1.37-1.76-.35-.49-.86-.99-.96-1.6-.41.29-.88.49-1.36.62-.51.15-1.22.34-1.73.14-.05-.02-.09-.06-.11-.1-.37-.36-.64-.8-.89-1.25-.23-.4-.49-.84-.64-1.29-.39.28-.92.42-1.35.59-.56.23-1.12.53-1.73.51-.12,0-.14-.16-.07-.23,0,0,0,0,0,0-.06-.08-.11-.19-.17-.32-.23-.46-.44-.92-.64-1.4-.13-.31-.03-.26-.32-.16-.25.09-.48.26-.69.41-.37.26-.67.61-1.08.82-.13.07-.25-.08-.21-.2,0-.02.02-.04.03-.07,0-.01-.02-.02-.03-.04-.22-.49-.3-1.04-.43-1.56-.38.12-.73.25-1.07.48-.32.22-.54.56-.88.74-.14.07-.33-.06-.3-.22-.04-.01-.07-.04-.09-.08-.22-.54-.32-1.13-.46-1.7-.88.24-1.64.72-2.29,1.36-.1.1-.25,0-.26-.12-.11-.02-.2-.09-.2-.22-.01-.51,0-1.03.09-1.54-.17.11-.32.22-.48.36-.23.2-.45.47-.72.6-.06.03-.13-.03-.13-.09,0-.01,0-.02,0-.03-.06.01-.13,0-.17-.06-.3-.45-.46-1.03-.53-1.58-.33.44-.62.9-.96,1.34.05.13-.06.24-.19.24,0,0,0,0,0,0-.15.18-.39,0-.28-.2,0-.01.02-.03.03-.04-.29-.52-.58-1.04-.87-1.57-.3.19-.59.39-.87.61-.3.23-.57.53-.92.69-.17.08-.29-.12-.21-.26,0,0,0,0,0-.01-.13-.41-.24-.82-.41-1.22-.51.42-.94.9-1.42,1.35-.01.09-.07.13-.15.14-.04.04-.08.08-.12.12-.09.08-.23-.03-.18-.13.03-.06.06-.11.09-.17-.11-.45-.23-.85-.46-1.24-.25.23-.51.45-.78.67-.22.17-.44.37-.69.48-.06.13-.27.21-.36.06-.19-.31-.4-.62-.57-.94-.14.21-.29.41-.47.59,0,0,0,0,0,0,.08-.02.18,0,.27.05l.04.02c.42.24-.09.94-.44.61l-.03-.03c-.13-.12-.16-.26-.13-.38-.14.11-.29.19-.46.16-.06.03-.13.02-.16-.07-.14-.41-.23-.86-.27-1.31-.24.32-.51.65-.86.78-.04.01-.07,0-.08-.03-.02.12-.03.24-.08.37-.05.15-.3.1-.27-.06.07-.38.04-.83-.13-1.19-.29.42-.62.79-.95,1.18-.09.1-.24,0-.17-.12.32-.51.6-1.02.99-1.49Z"/><path class="cls-33" d="m336.15,276.22c.46.33-.07,1.07-.53.73-.46-.33.07-1.07.53-.73Z"/><path class="cls-33" d="m259.42,217.27c.1-.14.31-.11.38.04.2.42.37.83.54,1.26.04-.29.24-.57.4-.79.21-.28.45-.55.74-.76.14-.1.3,0,.3.16,0,.41.19.88.28,1.28.04.16-.2.19-.24.04-.09-.32-.15-.69-.28-1.01-.18.18-.35.37-.49.59-.16.23-.25.51-.46.7-.1.09-.22,0-.24-.1-.04.09-.17.14-.23.04-.18-.3-.36-.6-.53-.9-.24.35-.48.71-.76,1.03-.18.21-.48,0-.34-.25.27-.47.62-.89.94-1.33Z"/><path class="cls-33" d="m255.3,218.72c.25-.29.5-.59.8-.83.13-.11.4,0,.35.19-.06.26-.09.52-.08.78.49-.49.96-.99,1.49-1.45.11-.1.29-.05.35.08.16.39.28.81.21,1.24-.02.12-.21.18-.25.04-.08-.27-.15-.54-.25-.8-.49.47-1,.9-1.5,1.36-.14.13-.31-.02-.29-.17-.04-.02-.08-.06-.09-.12-.02-.12-.02-.24-.03-.36-.11.13-.23.25-.35.37-.26.26-.51.57-.84.71-.09.04-.18-.05-.15-.14.12-.35.41-.63.64-.91Z"/><path class="cls-33" d="m316.9,240.28s0,0,0,0c.4-.4,1.14.12.94.63-.02.15-.09.3-.22.41-.21.17-.56.2-.77.03-.38-.31-.29-.84.06-1.06Z"/><path class="cls-33" d="m312.71,236.75s.02,0,.03,0c.27-.05.56.15.59.43,0,.01,0,.02,0,.03.05.47-.47.82-.87.54-.39-.28-.22-.9.24-.99Z"/><path class="cls-33" d="m308.44,233.11s.02.02.03.03c.31.36-.12.96-.56.77-.01,0-.03-.01-.04-.02-.29-.13-.42-.49-.22-.76.2-.27.58-.27.79-.03Z"/><path class="cls-33" d="m304.63,230.21c.17,0,.32.09.41.22.29.41-.09.94-.57.79-.16-.05-.28-.17-.34-.32-.14-.35.13-.72.5-.7Z"/><path class="cls-33" d="m299.82,227.57s.01.02.02.03c.17.31-.16.76-.5.69-.01,0-.02,0-.04,0-.37-.07-.6-.47-.35-.8.24-.34.69-.24.87.09Z"/><path class="cls-33" d="m294.47,225.12s.02.02.03.03c.49.41-.05,1.15-.59.82-.01,0-.02-.01-.04-.02-.55-.34.1-1.24.59-.82Z"/><path class="cls-33" d="m289.34,222.57c.53.39-.08,1.23-.61.84-.53-.39.08-1.23.61-.84Z"/><path class="cls-33" d="m285.86,222.13c.41.3-.06.94-.47.65-.41-.3.06-.94.47-.65Z"/><path class="cls-33" d="m282.84,220.76c.45.33-.06,1.04-.52.72-.45-.33.07-1.04.52-.72Z"/><path class="cls-33" d="m279.24,220.46c.35-.45,1.03.04.71.51,0,.01-.02.02-.02.04-.32.48-1.07-.06-.71-.52,0-.01.02-.02.03-.03Z"/><path class="cls-33" d="m276.98,219.92s.03,0,.04.01c.25.09.33.4.18.61-.15.21-.48.23-.64.02,0-.01-.02-.02-.03-.03-.24-.3.09-.75.45-.62Z"/><path class="cls-33" d="m275.45,219.44c.4.29-.06.93-.46.64-.4-.29.06-.93.46-.64Z"/><path class="cls-33" d="m272.99,219.34c.35.25-.05.81-.4.55-.35-.25.05-.81.4-.55Z"/><path class="cls-33" d="m270.74,218.65c.37.27-.05.85-.42.58-.37-.27.05-.85.42-.58Z"/><path class="cls-33" d="m268.59,218.86c.15.11-.02.35-.18.24-.15-.11.02-.35.18-.24Z"/><path class="cls-33" d="m335.37,273.69c.26.19.17.53-.08.68-.01,0-.02.01-.03.02-.23.14-.58-.11-.52-.38,0-.01,0-.02,0-.04.06-.28.36-.48.62-.29Z"/><path class="cls-33" d="m334.55,271.72c.38.28-.05.88-.44.61-.38-.28.05-.88.44-.61Z"/><path class="cls-33" d="m334.07,269.48s-.04.04-.06.05c-.27.22-.67-.07-.54-.39,0-.03.02-.05.03-.08.24-.57,1.05,0,.58.42Z"/><path class="cls-33" d="m332.55,265.87c.38.27-.05.87-.43.59-.38-.27.05-.87.43-.59Z"/><path class="cls-33" d="m330.77,261.47c.37.27-.05.85-.42.58-.37-.27.05-.85.42-.58Z"/><path class="cls-33" d="m329.61,257.97c.35.25-.05.8-.4.55-.35-.25.05-.8.4-.55Z"/><path class="cls-33" d="m327.07,254.33c.33.24-.05.76-.38.52-.33-.24.05-.76.38-.52Z"/><path class="cls-33" d="m325.37,251.46s.02,0,.04,0c.33,0,.47.42.29.66-.17.24-.62.24-.72-.07v-.04c-.11-.29.08-.55.39-.56Z"/><path class="cls-33" d="m323.54,248.27c.56.41-.08,1.3-.65.89-.56-.41.08-1.3.65-.89Z"/><path class="cls-33" d="m320.64,245.13c.62.45-.09,1.43-.71.98-.62-.45.09-1.43.71-.98Z"/><path class="cls-36" d="m350.67,367.19c1.1-6.02-2.7-12.33-8.86-15.57-6.73-3.54-11.59-2.14-15.96-4.49-6.93-3.72-5.4-8.63-12.54-10.93-4.12-1.32-8.43,1.37-10.97,3.44l-.11-.09c2.17-2.08,8.08-7.11,13.18-5.47,7.14,2.3,5.61,7.2,12.54,10.93,4.37,2.35,9.23.95,15.96,4.49,6.16,3.24,9.95,9.55,8.86,15.57-.66,3.62-4.26,8.6-8.53,12.64,3.3-3.57,5.88-7.51,6.43-10.52Z"/><path class="cls-39" d="m331.41,386.65c3.82-.91,8.85-4.65,12.83-8.95,3.3-3.57,5.88-7.51,6.43-10.52,1.1-6.02-2.7-12.33-8.86-15.57-6.73-3.54-11.59-2.14-15.96-4.49-6.93-3.72-5.4-8.63-12.54-10.93-4.12-1.32-8.43,1.37-10.97,3.44l15.29,12.63c2.5-.74,5.39-.21,7.5,1.61,2.4,2.06,3.1,5.18,2.02,7.78l4.21,3.53,2.08-2.1c.43-.43,1.21-.28,1.45.29l.58,1.4c.12.28.06.6-.16.82l-6.84,6.92c-.22.22-.55.3-.86.22l-1.55-.43c-.62-.17-.85-.89-.42-1.32l2.22-2.25-4.08-3.57c-2.73,1.33-6.22.96-8.68-1.15-2.15-1.84-2.93-4.53-2.3-6.94l-13.15-11.74c-.21.97-.51,2.02-.97,3.03-1.38,3.08-3.59,7.3-1.69,9.64,3.99,4.93,7.47,2.24,11.67,7.54,3,3.78,1.26,8.75,5.38,14.14,4.51,5.89,11.03,8.46,17.38,6.96Zm-5.46-1c-1.55-.31-3-.96-4.37-1.72-4.16-2.32-7.65-5.9-9.11-10.18-.66-1.93-.9-3.94-1.46-5.89-.56-1.95-1.52-3.91-3.25-5.16-1.87-1.35-4.38-1.7-6.26-3.04-1.91-1.37-2.9-3.68-2.85-5.89.03-1.35.42-2.66,1.03-3.86.89-1.75,1.17-2.21,2.8-.77,2.55,2.25,5.1,4.5,7.66,6.75.39.34.78.69,1.01,1.14.35.7.22,1.5.19,2.25-.08,2.49,1.13,5.02,3.19,6.67,2.06,1.65,4.92,2.4,7.54,1.95.79-.13,1.57-.37,2.37-.25.8.11,1.61.74,1.53,1.48-.07.63-.7,1.04-1.04,1.58-.61.99-.06,2.38.99,3.02,1.05.64,2.43.62,3.57.2,1.14-.42,6.24-5.81,7.12-8.11.33-.86.56-1.79.35-2.69-.22-.9-1-1.76-1.99-1.85-1.13-.11-2.14.76-3.26.64-.82-.09-1.49-.7-1.86-1.4-.36-.69-.47-1.47-.61-2.22-.37-2.12-1.06-4.34-2.8-5.78-2.26-1.87-5.59-1.87-8.38-2.93-2.27-.86-4.15-2.42-5.98-3.95-2.12-1.77-4.24-3.55-6.37-5.32-.17-.14-.35-.32-.32-.52.02-.11.11-.21.19-.29,1.93-1.85,5.07-2.46,7.79-1.68,2.72.78,4.96,2.86,6.01,5.32.48,1.12.74,2.34,1.5,3.32,1.13,1.46,3.09,2.09,4.94,2.57,4.04,1.06,8.19,1.84,12.04,3.44,3.85,1.6,7.47,4.17,9.17,7.76,1.5,3.18,1.33,6.85.13,10.05-1.2,3.21-3.36,6.01-5.75,8.56-1.96,2.09-4.13,4.06-6.75,5.4-2.62,1.34-5.74,2.02-8.72,1.42Z"/><path class="cls-38" d="m321.57,383.93c-4.16-2.32-7.65-5.9-9.11-10.18-.66-1.93-.9-3.94-1.46-5.89-.56-1.95-1.52-3.91-3.25-5.16-1.87-1.35-4.38-1.7-6.26-3.04-1.91-1.37-2.9-3.68-2.85-5.89.03-1.35.42-2.66,1.03-3.86.89-1.75,1.17-2.21,2.8-.77,2.55,2.25,5.1,4.5,7.66,6.75.39.34.78.69,1.01,1.14.35.7.22,1.5.19,2.25-.08,2.49,1.13,5.02,3.19,6.67,2.06,1.65,4.92,2.4,7.54,1.95.79-.13,1.57-.37,2.37-.25.8.11,1.61.74,1.53,1.48-.07.63-.7,1.04-1.04,1.58-.61.99-.06,2.38.99,3.02,1.05.64,2.43.62,3.57.2,1.14-.42,6.24-5.81,7.12-8.11.33-.86.56-1.79.35-2.69-.22-.9-1-1.76-1.99-1.85-1.13-.11-2.14.76-3.26.64-.82-.09-1.49-.7-1.86-1.4-.36-.69-.47-1.47-.61-2.22-.37-2.12-1.06-4.34-2.8-5.78-2.26-1.87-5.59-1.87-8.38-2.93-2.27-.86-4.15-2.42-5.98-3.95-2.12-1.77-4.24-3.55-6.37-5.32-.17-.14-.35-.32-.32-.52.02-.11.11-.21.19-.29,1.93-1.85,5.07-2.46,7.79-1.68,2.72.78,4.96,2.86,6.01,5.32.48,1.12.74,2.34,1.5,3.32,1.13,1.46,3.09,2.09,4.94,2.57,4.04,1.06,8.19,1.84,12.04,3.44,3.85,1.6,7.47,4.17,9.17,7.76,1.5,3.18,1.33,6.85.13,10.05-1.2,3.21-3.36,6.01-5.75,8.56-1.96,2.09-4.13,4.06-6.75,5.4-2.62,1.34-5.74,2.02-8.72,1.42-1.55-.31-3-.96-4.37-1.72Z"/><path class="cls-38" d="m280.62,318.82c-.19-.86-.25-1.77-.61-2.57-.87-1.92-3.12-2.68-4.91-3.79-.42-.26-.83-.55-1.3-.7-1.03-.32-2.18.14-2.96.88s-1.28,1.73-1.76,2.7c-.29.59-.59,1.21-.61,1.87-.02,1.08.71,2.02,1.47,2.78.99.99,2.08,1.88,3.26,2.63,1.2.76,2.68,1.4,3.99.86.35-.14.7-.37,1.07-.31.4.07.73.47,1.14.43.16-.02.31-.11.44-.2.59-.4,1.89-1.32,1.89-2.13,0-.73-.95-1.67-1.12-2.46Z"/><rect class="cls-47" x="277.8" y="313.42" width="1.57" height=".42" transform="translate(-139.85 343.42) rotate(-52.46)"/><path class="cls-47" d="m279.35,312.63c-.25-.19-.62-.15-.81.11s-.15.62.11.81.62.15.81-.11.15-.62-.11-.81Z"/><rect class="cls-47" x="276.78" y="312.64" width="1.57" height=".42" transform="translate(-139.63 342.31) rotate(-52.46)"/><path class="cls-47" d="m278.33,311.84c-.25-.19-.62-.15-.81.11s-.15.62.11.81.62.15.81-.11.15-.62-.11-.81Z"/><rect class="cls-47" x="275.75" y="311.85" width="1.57" height=".42" transform="translate(-139.4 341.19) rotate(-52.46)"/><path class="cls-47" d="m277.3,311.05c-.25-.19-.62-.15-.81.11s-.15.62.11.81.62.15.81-.11.15-.62-.11-.81Z"/><path class="cls-19" d="m273.99,317.62c.49.44.87.99,1.33,1.47.51.54,1.12.99,1.79,1.31.31.15.7.36.67.71-.02.21-.2.38-.4.44s-.42.02-.62-.03c-.87-.24-1.58-.87-2.24-1.49-.9-.85-1.77-1.73-2.56-2.68-.36-.43-.9-1.1-.74-1.7.42.14.91.72,1.32.98.5.31,1.01.6,1.46.99Z"/><path class="cls-19" d="m275.17,315.18c.49.44.87.99,1.33,1.47.51.54,1.12.99,1.79,1.31.31.15.7.36.67.71-.02.21-.2.38-.4.44s-.42.02-.62-.03c-.87-.24-1.58-.87-2.24-1.49-.9-.85-1.77-1.73-2.56-2.68-.36-.43-.9-1.1-.74-1.7.42.14.91.72,1.32.98.5.31,1.01.6,1.46.99Z"/><rect class="cls-47" x="269.12" y="320.4" width="1.57" height=".42" transform="translate(-148.78 339.27) rotate(-52.46)"/><path class="cls-47" d="m269.13,321.61c.25.19.62.15.81-.11s.15-.62-.11-.81-.62-.15-.81.11-.15.62.11.81Z"/><rect class="cls-47" x="270.13" y="321.18" width="1.57" height=".42" transform="translate(-149 340.38) rotate(-52.46)"/><path class="cls-47" d="m270.15,322.39c.25.19.62.15.81-.11s.15-.62-.11-.81-.62-.15-.81.11-.15.62.11.81Z"/><rect class="cls-47" x="271.16" y="321.97" width="1.57" height=".42" transform="translate(-149.22 341.51) rotate(-52.46)"/><path class="cls-47" d="m271.18,323.19c.25.19.62.15.81-.11s.15-.62-.11-.81-.62-.15-.81.11-.15.62.11.81Z"/><path class="cls-50" d="m242.67,235.24c-2.9-3.32-7.04-5.53-11.41-6.09s-8.93.52-12.58,2.99c-2.74,1.86-5.03,4.64-5.52,7.91,3.55.77,7.23.74,10.86.69,3.59-.05,7.18-.13,10.77-.23,1.75-.05,3.5-.1,5.24-.17,1.62-.06,3.66.16,5.19-.29-.46-1.78-1.33-3.42-2.55-4.81Z"/><path class="cls-51" d="m225.71,232.14c-3.04,1.04-5.92,2.84-7.64,5.55-.26.41-.5.85-.87,1.17-.85.72-2.11.6-3.21.43.22-2.02,1.45-3.82,2.99-5.14s3.38-2.23,5.2-3.13c.91-.45,1.82-.9,2.79-1.17.75-.22,3.15-.87,3.47.22s-2.01,1.83-2.72,2.08Z"/><path class="cls-32" d="m228.06,231.83c-2.96,1.45-5.72,3.29-8.46,5.12-.59.39-1.19.79-1.63,1.34-.53.66-.89,1.56-1.69,1.84-.87-1.6-.19-3.63.88-5.1,1.75-2.4,4.44-3.9,7.29-4.6,1.4-.35,2.89-.54,4.34-.49,2.35.08.41,1.35-.73,1.9Z"/><path class="cls-29" d="m230.98,221.48c.53-1.9-.06-3.95-.96-5.71s-2.12-3.34-2.97-5.13-1.3-3.9-.58-5.73c-2.55,3.39-2.82,8.33-.66,11.98.9,1.53,2.18,2.82,3.05,4.36.78,1.39,1.38,3.5.42,4.94-.21-1.59,1.29-3.23,1.71-4.72Z"/><path class="cls-29" d="m227.93,223.68c.08-1.3-.59-2.53-1.42-3.54s-1.83-1.85-2.63-2.88-1.38-2.32-1.18-3.61c-1.16,2.54-.64,5.75,1.26,7.8.8.85,1.79,1.51,2.57,2.38.7.78,1.38,2.05.96,3.12-.36-.99.38-2.26.44-3.27Z"/><path class="cls-19" d="m288.41,288.61c2.63,2.18,5.32,4.27,7.98,6.4,2.8,1.96,9.85,6.89,12.55,8.78.43.39,1.46.84,1.66,1.42.24.44.17,1.7.22,2.26,0,6.93-.37,15.33-6.12,20.05-.46.36-1.1.29-1.52-.11l-.48-.42-3.84-3.37-3.84-3.37c-1.35-1.12.56-2.44,1.06-3.53,1.77-2.87,3.66-5.71,6.19-8-1.45.91-2.72,2.1-3.91,3.33-1.78,1.89-3.46,3.83-4.81,6.06-.64.98-.32,2.45.6,3.12,0,0,3.84,3.37,3.84,3.37l3.84,3.37c.35.28.73.71,1.18.88,1.05.49,2.21.1,2.99-.71,5.71-5.08,6.15-13.59,6.14-20.72-.09-.87.08-1.9-.35-2.78-.35-.89-1.38-1.41-2.09-1.94,0,0-4.18-2.93-4.18-2.93l-8.36-5.86c-2.91-1.77-5.8-3.58-8.75-5.31h0Z"/><path class="cls-19" d="m286.5,303.5c2.83,4.13,6.44,7.98,10.96,10.23-3.42-3.7-6.8-7.32-10.96-10.23h0Z"/><path class="cls-19" d="m294.39,321.7s-6.15-3.66-4.41-14.69"/><path class="cls-19" d="m267.91,293.45c-4.48,3.74-6.32,9.63-8.15,14.98-1.2,4.09-1.99,8.42-2.34,12.67.08,1.44.25,2.88.44,4.3.34-1.41.57-2.81.88-4.2.35-4.16,1.12-8.4,2.29-12.4,1.53-5.46,4.38-10.31,6.88-15.36h0Z"/><path class="cls-19" d="m255.95,327.05c1.43,1.5,3.45,2.08,5.45,2.36,4.84.82,9.86.72,14.74.36,3.35-1.02,3.45-.93-.11-1.32-2.8.2-5.89.35-8.68.22-3.89-.05-7.59-.99-11.4-1.62h0Z"/><path class="cls-19" d="m270.08,290.52c-10.02,3.64-17.11,20.83-20.3,30.4,0,0-.54,1.6-.54,1.6-.11.34-.39.62-.71.72-2.04.52-4.3.7-6.35.26-2.18-.21-3.15-.08-4.57-1.79.98,2.04,1.97,2.4,4.29,3.08,2.36.5,4.71.3,7.02-.28.76-.23,1.36-.84,1.59-1.57.34-.99,1.27-3.74,1.62-4.77,3.86-10.32,9.08-20.78,17.96-27.64h0Z"/><path class="cls-19" d="m256.84,292.55c-1.18.91-2.29,1.9-3.39,2.9l-2.8,3.41c-1.84,2.29-3.63,4.63-5.36,7.02-2.14,2.96-4.19,6.12-5.94,9.36,0,0-.98,2.02-.98,2.02-.2.73-.36,1.48-.53,2.2-.15.74-.18,1.51-.24,2.23.58-1.37,1.2-2.66,1.99-3.9,1.83-3.93,4.26-7.63,6.78-11.15,3.3-4.85,7.54-9,10.48-14.11h0Z"/><path class="cls-19" d="m257.86,322.62c-2.6-.56-5.23-.66-7.86-.31,2.6.56,5.23.66,7.86.31h0Z"/><path class="cls-19" d="m282.87,287.16l-4.94-2.1s.49-.03.49-.03c-.68.6-1.26,1.28-1.83,1.97-3.31,3.89-4.74,8.99-6.08,13.84-.26.92-.84,2.38.16,3,2.8,1.55,5.85,3.59,8.88,4.44,1.02.14,1.01-.81.94-1.57-.18-6.6.37-13.25,2.39-19.55h0Zm0,0c-.2,2.36-.39,4.97-.47,7.34-.42,4.02-.74,8.09-.6,12.13.32,2.68-1.64,3.69-4.19,2.39-2.41-1.05-5.62-2.84-7.38-3.95-1.9-.84-1.54-3.06-.99-4.6.62-2.28,1.27-4.59,2.12-6.8,1.45-3.64,3.27-7.56,6.79-9.61l.23.15,4.5,2.93h0Z"/><path class="cls-19" d="m254.93,282.46c1.76,1.53,1.91,4.11,2.12,6.29.37,2.81.48,5.72.36,8.55,2.86-3.26,6.45-5.78,10.35-7.77,3.65-1.87,7.54-3.4,11.48-4.51-3.57-5.17-11.08-5.6-16.67-4.29-1.82.46-3.59,1.03-5.3,1.73,6.28-.92,15.57-2.69,20.32,2.55,0,0,.38-1,.38-1-1.89.55-3.7,1.21-5.51,1.93-5.4,2.22-10.69,4.93-14.83,9.2,0,0,1.14.48,1.14.48.02-3.55-.03-7.2-1.57-10.47-.49-1.07-1.19-2.18-2.27-2.69h0Z"/><path class="cls-19" d="m235.98,266.87c6.36,8.11,11.69,17.12,14.88,26.95.54,1.38.81,2.84,1.29,4.26-1.21-11.88-7.45-23.15-16.17-31.21h0Z"/><path class="cls-19" d="m245.84,263.65c2.29,2.18,6.94,6.51,9.27,8.64,3.06,2.94,6.23,5.73,9.88,7.94,0,0,.09-.1.09-.1-3.88-4.79-9.47-8.7-14.19-12.64l-4.96-3.95-.09.1h0Z"/><path class="cls-19" d="m243.57,327.05c-.69,7.82,4.03,14.56,7.89,20.9,3.57,6.59,4.78,14.11,7.52,21.05-.51-7.57-3.01-14.87-6.35-21.67-1.81-3.34-4.15-6.21-5.59-9.71-1.39-3.45-2.55-6.95-3.47-10.57h0Z"/><path class="cls-19" d="m290.38,341.67c-.59,4.32-.08,8.65.57,12.93.64,4.28,1.51,8.53,2.81,12.69.61,3.67-2.01,5.33-5.66,4.79-2.39-.33-4.57-.86-6.96-1.4,1.11.65,2.24,1.28,3.38,1.88,2.23.89,4.71,1.22,7.12.64,2.73-.6,4.02-3.74,3.39-6.31-1.27-4.06-2.13-8.25-2.76-12.48-.44-2.64-.59-5.32-.98-7.96-.2-1.06-.7-3.7-.9-4.78h0Z"/><path class="cls-19" d="m258.98,337.27c4.15,5.75,9.26,10.73,13.03,16.75,2.86,4.41,5.45,9.08,6.78,14.17l.47,1.23c.51,1.25.11-.06.51,1.25.02-.89.61.8.59-.11-.24-9.49-13.56-28.01-21.39-33.28h0Z"/><path class="cls-19" d="m270.08,350.06c1.09,6.07,4.14,11.72,5.26,17.75.07.58.3,1.3-.01,1.79-.26.41-.91.74-1.57.94-2.84.77-6.04.54-8.97.2-1.51-.05-3.13.06-4.56-.5,1.23,1.04,2.89,1.34,4.39,1.81,3.19.36,6.36.6,9.53-.24,2.13-.63,3.08-1.91,2.5-4.22-.61-3.15-1.64-6.08-2.65-9.03-.97-2.99-2.17-5.86-3.91-8.49h0Z"/><path class="cls-19" d="m296.43,371.35c1.77,5.82,6.8,9.86,11.8,12.89.97.93,1.38,2.33,1.15,3.68-.78,2.21-7.49,1.87-9.59,1.67-.67-.06-.88-.17-1.43-.55,0,0-1.57-1.03-1.57-1.03-2.66-1.7-5.8-2.85-9.01-2.96-.52-.07-.84-.25-1.25-.65-2.28-2.72-2.67-6.61-3.01-10.14-.57,4.05-.71,12.04,5.04,12.17,3.29.23,6.37,1.83,9.07,3.71.29.18.5.35.92.54,1.66.45,3.23.37,4.89.38,2.25-.15,4.88-.12,6.68-1.76,1.33-1.77.52-4.57-.99-6.02-2.9-1.86-5.67-3.75-8.01-6.28-1.82-1.62-3.48-3.47-4.7-5.64h0Z"/><path class="cls-19" d="m276.15,373.26c.24,2.39.59,4.78.89,7.19.49,1.54-.43,3.05-1.92,3.47-6.97,2.72-15.18,4.28-22.15.94,0,0-.77-.39-.77-.39-.81-.36-1.03-1.04-1.53-1.74-.72-1.15-1.85-3.36.4-3.4,0,0,.47-.05.47-.05,4.11-.36,7.61-3.31,9.43-6.81-2.7,3.14-6.4,5.29-10.49,5.58-2.94.6-2.22,3.5-.94,5.37.48.75,1.14,1.87,2.02,2.2,7.75,4.19,17.26,2.43,24.96-.88,1.59-.86,2.35-2.97,1.81-4.62-.72-2.27-1.4-4.57-2.18-6.86h0Z"/><path class="cls-19" d="m243.16,262.06c2.71-1.14,6.1-2.78,6.73-6.02.29-1.37-1.18-2.01-2.22-1.97-3.54,0-7.85,2.12-11.14,3.17-1.99.26-4.89.5-6.52-1.13-1.17-1.16-2.82-1.54-4.26-1.91-2.66-.57-5.3-.96-8.04-.33-.85.22-1.96.83-1.72,1.99.91,2.52,7.19,2.88,9.54,3.1,0,0,.02-.13.02-.13-2.5-.65-5.07-1.29-7.3-2.35-.37-.18-.98-.56-1.05-.87.02-.04,0-.05.16-.16,1.28-.61,2.86-.46,4.34-.44,2.39.16,5.14.45,7.22,1.58.12.07.21.15.3.23.9.91,2.25,1.17,3.45,1.22,1.35.05,2.66-.13,3.96-.39,1.77-.7,3.6-1.27,5.46-1.66,1.07-.2,6.91-1.55,6.63-.05-.49,2.72-3.49,4.46-5.65,6.02,0,0,.06.12.06.12h0Z"/><path class="cls-19" d="m216.61,255.39c-.89-.83-2.2-1.7-3.49-1.22-.67.31-1.24.86-1.32,1.64.02.78.65,1.34,1.17,1.77,3.12,2.2,6.84,3.31,10.52,4.16,2,.23,3.97.56,5.85,1.4.78.28,1.49.79,2.22,1.15,4.15.87,8.47.38,12.5-.69-3.96.43-8.23.51-12.08-.4-.69-.44-1.38-.89-2.13-1.21-1.57-.69-3.19-1.2-4.95-1.4-3.87-.53-7.99-1.76-11.43-3.69-.63-.43-1.26-.97-.87-1.52.31-.68,1.01-1.08,1.8-.95.77.11,1.53.49,2.21.96h0Z"/><path class="cls-19" d="m248.93,254.81c1.45-.38,2.77-1.31,3.83-2.39.29-.24.5-.89.3-1.29-.29-.9-1.28-.87-2.06-.93-4.49,0-16.68,0-21.33,0-4.67,0-16.8,0-21.33,0-.53.02-1.04.37-1.24.83-.87,1.77,3.32,4.06,4.71,4.36-1.57-.82-2.82-2.08-3.73-3.54-.1-.22.15-.4.26-.32,4.47,0,16.69,0,21.33,0,4.69,0,16.78,0,21.33,0l.89-.08c.09-.03.15-.02.23.07.05.1.12.15-.03.35-.82,1.19-1.85,2.24-3.16,2.94h0Z"/><path class="cls-19" d="m215.01,249.98c-2.38-2.29-4.17-5-4.9-8.12-.12-.34-.04-.73.34-.85.1-.06.63-.03.77-.03.6,0,2.35,0,2.98,0,9.37,0,25.37,0,34.72,0,.46-.05.85.35.67.82-.18.78-.44,1.55-.68,2.31-.65,2.48-1.74,4.92-3.67,6.76,2.79-1.82,4.71-5.04,5.52-8.27,0,0,.12-.49.12-.49.35-1.07-.48-2.37-1.65-2.44-.77-.02-2.49,0-3.29-.01-9.37,0-25.37,0-34.72,0,0,0-.5,0-.5,0-1.25-.08-2.33,1.26-1.9,2.47.67,3.41,3.43,6.02,6.2,7.86h0Z"/><path class="cls-19" d="m308.28,324.41c3.33-.44,6.02-2.93,7.84-5.63,3.8-5.57,4.44-12.46,5.01-18.95.71-6.4,4.3-12.72,11.55-11.71,3.22.32,6.06,2.1,9.09,3.12,3.09,1.14,6.23,2.18,9.56,2.69,3.32.47,7.74.27,9.49-3.18,0,0-1.28-.32-1.28-.32-.83,4.49-3.13,9.23-7.36,11.36-2.91,1.46-6.24,1.18-9.37,2.04-3.71.66-6.01,3.66-6.77,7.15-1.41,4.64-.79,9.78-3.2,14.06-3.17,5.63-9.89,7.96-16.03,8.81-3.21.42-6.47.49-9.72.35,9.39,1.1,21.62.74,26.91-8.51,3.29-5.64,1.3-13.2,5.25-18.47,2.08-2.33,5.66-2.41,8.62-2.91,7.21-.35,11.93-7.01,12.98-13.69,0,0,.94-5.56.94-5.56l-2.21,5.24c-3.37,5.03-12.72,1.27-17.35-.3-3.14-1.07-6.04-2.87-9.41-3.19-5.58-.8-10.22,2.71-11.85,7.95-1.7,4.71-1.29,9.77-2.37,14.57-1.12,6.02-3.75,13.38-10.32,15.09h0Z"/><path class="cls-19" d="m318.08,313.79c1.51.65,3.31-.47,3.83-1.82,1.65-2.84,3.23-5.73,4.63-8.7,0,0-1.03-.25-1.03-.25.32,4.93.49,9.87.14,14.8,2.81-4.16,5.48-8.4,8.06-12.71l-1.31-.25c.29,1.98,3.99,22.27,2.72,10.7-.4-4.29-.95-8.6-1.62-12.86l-1.01,1.69c-2.33,3.95-4.6,7.94-6.73,12.01,0,0,.65.18.65.18-.11-2.26-.18-4.52-.13-6.78.08-2.97.33-6.06.43-9.04-1.17,2.04-2.39,4.27-3.4,6.38-.73,1.47-1.42,2.96-2.08,4.47-.24.63-.59,1.21-1.14,1.61-.53.39-1.26.53-1.96.44l-.04.13h0Z"/><path class="cls-19" d="m294.61,320.97c-.69.6-1.61.85-2.35,1.19-.71.29-1.43.22-2.16-.17-1.26-.63-3.24-1.55-4.64-.47-1.04.87-1.59,1.63-2.09,2.85-.32.7-.28,1.69-.34,2.39.05.06-.07.21-.31.27-.48.13-1.11.1-1.7.01.82.78,2.97,1.62,3.34-.14.08-.74-.04-1.39.26-2.09.32-.86.96-1.69,1.61-2.22,1.03-.66,2.17.09,3.28.57,2.15,1.16,4.54.24,5.11-2.2h0Z"/><path class="cls-19" d="m300.82,327.05c-.8.53-1.83,1.31-1.94,2.44,0,0-.1.56-.1.56-.59,4.85-2.55,9.9-8.23,9.91-.33-.05-1.96-.32-2.32-.73-.07-.19-.15-.62-.19-.82-.16-1.02-.64-2.43-1.99-2.46-.52-.08-1.55-.1-1.86-.42-.08-.53-.2-1.4-.39-1.99-.12-.38-.22-.8-.66-1.17-.16-.17-.6-.35-.8-.35-1.1-.08-1.98-1.09-1.96-2.25-.51,1.28.42,2.91,1.74,3.34.11.03.06.05.12.14.3.56.5,1.45.58,2.13.04.23.04.42.15.68.31.67.89.84,1.26.96.68.2,1.32.17,1.97.31.36.08.58,1.62.73,2.17.15.7.92,1.12,1.34,1.27.76.29,1.46.42,2.22.52,3.43.1,6.77-2.07,8.09-5.23.9-2.07,1.55-4.31,1.24-6.55-.13-.89.47-1.68,1.01-2.45h0Z"/><path class="cls-19" d="m284.66,323.07c-.95-1.17-2.61-2.54-3.35-3.66-.13-.97.39-1.86-.03-2.99-.25-.83-.98-1.35-1.62-1.83-1.72-1.24-3.53-2.29-5.36-3.35-1.27-.97-3.01-.52-4.11,1.07-.87,1.07-1.58,2.18-2.28,3.33-.56,1.43.08,3.04,1.23,3.9,1.48,1.32,3.05,2.58,4.59,3.81.75.72,1.99.93,2.83.24-.01.03-.14.07-.14.07.36.13,1.13.61,1.62.85,1.36.74,2.66,1.65,3.99,2.54-1.31-1.5-2.63-3.1-4.31-4.24-.56-.25-.79-.5-1.57-.44-.2,0-.43.22-.61.29-.23.09-.51,0-.71-.12-1.62-1.29-3.26-2.6-4.8-3.97-.8-.62-1.21-1.44-.9-2.41.36-.5,1.39-2.22,2.08-3,.69-.88,1.39-1.49,2.35-.82,2.05,1.23,4.23,2.39,6.06,3.93.21.2.32.34.4.58.39.92-.49,2.19.13,3.14,1.07,1.28,3.11,2.12,4.51,3.09h0Z"/><line class="cls-55" x1="299.46" y1="337.11" x2="316.44" y2="350.48"/><line class="cls-55" x1="296.67" y1="340.12" x2="312.68" y2="354.61"/><line class="cls-55" x1="323.11" y1="364.46" x2="328.65" y2="369.47"/><line class="cls-55" x1="326.93" y1="360.32" x2="333.17" y2="365.38"/><ellipse class="cls-19" cx="319.37" cy="357.49" rx="7.34" ry="7.01"/><path class="cls-19" d="m245.25,239.66c-2.52-11.19-17.48-13.38-26.29-8.32-3.15,1.67-5.45,4.81-5.97,8.32,1.6-2.94,3.8-5.45,6.64-7.18,5.61-3.06,13.31-3.39,18.85.02,2.77,1.82,4.99,4.33,6.77,7.16h0Z"/><path class="cls-19" d="m237.54,235.71s-1.56-1.67-3.63-1.75"/><path class="cls-19" d="m232.43,233.76s-5.64-1.56-11.97,1.08"/><path class="cls-19" d="m289.18,260.46c-3.35-4.13-7.84-7.06-11.59-10.8-3.96-3.52-7.17-7.71-11.05-11.28,1,2.52,2.61,4.69,4.51,6.6,3.61,3.91,7.54,7.49,11.57,10.96,0,0,3.05,2.56,3.05,2.56,1.15.69,2.3,1.37,3.52,1.97h0Z"/><path class="cls-19" d="m279.16,233.58c-3.46,1.24-8.08,3.94-7.62,8.23,0,.06.09.08.13.03,1.09-1.66,1.93-3.08,3.12-4.61,1.23-1.38,2.76-2.57,4.43-3.53.07-.03.03-.15-.05-.12h0Z"/><path class="cls-19" d="m299.41,253.82c-.49.58-1.03,1.2-1.76,1.39-.16.04-.35.06-.49-.04-.08-.06-.13-.14-.16-.23-.18-.44-.08-.95.15-1.36s.59-.74.93-1.07c1.52-1.42,2.62-.22,1.33,1.31Z"/><path class="cls-19" d="m283.84,245.85c-.49.58-1.03,1.2-1.76,1.39-.16.04-.35.06-.49-.04-.08-.06-.13-.14-.16-.23-.18-.44-.08-.95.15-1.36s.59-.74.93-1.07c1.52-1.42,2.62-.22,1.33,1.31Z"/><path class="cls-19" d="m275.4,232.18c17.93,3.81,34.36,11.07,43.99,27.51,1.52,2.06,2.74,4.31,4.02,6.57-.78-2.46-1.71-4.9-2.88-7.24-6.57-11.34-17.68-19.54-29.9-23.92-4.87-1.83-10-3.01-15.23-2.92h0Z"/><path class="cls-19" d="m296.34,270.06c-9.89,1.36-15.1,2.52-22.51-5.67-.93-.75-1.84-1.55-2.74-2.39.45,1.15,1.06,2.25,1.74,3.29,2.53,2.74,5.47,5.18,9.09,6.36,4.72,1.31,10.23,1.1,14.43-1.59h0Z"/><path class="cls-19" d="m274.73,266.37c-.04,3.02-.02,6.19,1,9.08.43.93,1.07,1.93,2.08,2.39l.09-.1c-.79-1.85-1.15-3.64-1.83-5.52-.51-1.9-.89-3.87-1.21-5.85h-.13Z"/><path class="cls-19" d="m296.85,269.12c-4.16,4.78-10.29,6.92-16.34,8.05-.87.19-1.75.31-2.65.54v.13c5.52,1.09,11.08-1.33,15.34-4.71,1.41-1.16,2.7-2.46,3.76-3.94l-.11-.08h0Z"/><path class="cls-19" d="m261.92,238.58c-3.1,2.9-5.56,6.57-6.32,10.85-.89,8.43,1.99,17.14,6.93,23.94,2.48,3.45,5.93,6.22,9.95,7.61-3.36-2.4-6.34-5.19-8.89-8.41-4.7-6.44-7.5-14.92-6.68-22.91.86-3.94,2.99-7.57,5.01-11.08h0Z"/><path class="cls-19" d="m317.64,268.52c-.9,2.27-.52,4.67.37,6.9.83,2.3,2.79,4.31,5.28,4.76,0,0-.28-1.17-.28-1.17-1.07.81-2.23,1.58-3.41,2.23-1.27.54-2.26,1.49-3.6,1.93.71.19,1.48.14,2.21.03,2.13-.47,3.85-1.93,5.61-3.14,0,0,1.12-.85,1.12-.85-1.4-.3-3-.63-4.05-1.67-2.4-2.35-2.24-5.98-3.25-9.01h0Z"/><path class="cls-19" d="m318.5,284.99c-1.73.23-3.72.02-4.65-1.55-.15-.22-.38-.39-.66-.46-.51-.07-1.35-.01-1.89-.03-.56,0-1.07.46-1.11,1.02-.01.35.04.4.05.52.22,1.15.47,2.31.84,3.43.07.23.16.46.25.69-.03-.09.08-.29.25-.23-.73-.26-1.52-.52-2.26-.72-1.82-.59-3.73-.87-5.6-.29,2.14.93,4.34,1.25,6.54,1.96.18.05.71.25.88.3.59.23,1.31-.13,1.48-.75.16-.54-.14-.9-.27-1.38-.34-1.05-.59-2.17-.79-3.26-.06-.37,0-.04-.1-.03-.03.03-.08.05-.12.05.37,0,1.36.02,1.55,0-.06-.01-.09-.04-.11-.07l.18.29c1.3,2.04,3.85,1.78,5.55.51h0Z"/><path class="cls-19" d="m302.72,288.19c-1.05-2.57-2.94-2.7-5.29-1.71-.57.16-.89-.47-1.56-.6-1.91.05-3.63.62-5.52.71-4.36.52-8.52-.71-12.51-2.3,4.2,4.97,11.82,3.86,17.54,2.91.28-.02.1-.08.38.07.42.34,1.4.77,2.06.48,1.75-.63,3.27-1.09,4.89.44h0Z"/><path class="cls-19" d="m261.12,236.77c-7.82-7.33-13.73-20.09,1.18-22.9,10.34-2.13,21.04.55,30.8,4.04,13.17,4.9,25.15,12.95,34.69,23.26,7.55,8.02,25.94,31.23,10.78,39.28-4.8,1.65-10.7,1.84-15.17-.92,5.1,3.8,15.92,4,20.06-1.37,6.3-9.22-2.29-22.09-7.85-29.7-10.61-14.31-25.31-25.6-42.05-31.79-9.99-3.58-20.94-6.28-31.55-4.09-16.03,3.1-10.23,16.74-.9,24.2h0Z"/><path class="cls-19" d="m332.35,224.48c-1.3-2.8-3.38-5.07-5.81-6.95-2.37-1.89-5.08-3.6-8.27-4.07-4.75-.39-9.2,1.24-13.21,3.49-1.23.91-2.43,1.85-3.49,2.94,1.35-.68,2.7-1.32,4.09-1.85,13.39-6.81,16.81-2.45,26.7,6.44h0Z"/><path class="cls-19" d="m285.14,214.02c2.77-2.15,5.21-4.59,7.62-7.11,1.47-1.2,7.82-8.71,8.97-4.88.68,2.37.21,5.06.28,7.52-.05,1.73-.1,3.46-.25,5.17.02,1.72.23,3.48-.19,5.16,1.76-3.1,1.63-6.84,1.76-10.3.04-1.74.06-3.48.06-5.23,0-1.4-.17-3.05-1.28-4.14-2.28-1.83-4.79.81-6.48,2.15-3.88,3.54-7.72,7.17-10.49,11.66h0Z"/><path class="cls-19" d="m290.29,215.06c.8-.44,1.55-.93,2.29-1.42l1.8-1.89c.82-.86,2.5-2.59,3.2-3.35-.07.02-.11.01-.14-.07.01-.15-.04.19-.08.38-.34,1.84-.85,4.57-1.2,6.42.13,3.16.03,3.18,1.3.24.24-1.28.72-3.86.96-5.14l.24-1.28c.04-.31.15-.5.07-.91-.16-.75-.99-1.16-1.67-.86-.44.2-.62.55-.93.82,0,0-.9.94-.9.94-.9.94-2.72,2.83-3.62,3.77-.46.77-.92,1.53-1.33,2.35h0Z"/><path class="cls-19" d="m320.37,232.24c6.57-1.98,13.52-4.61,19.86-7.23.12-.04.55-.24.62-.25.38-.13.81.29.68.68-2.62,6.86-5.27,14.29-7.21,21.4,0,0,.12.05.12.05l4.45-11.22c.74-1.86,2.62-6.62,3.33-8.42.18-.47.38-.92.55-1.41.38-1.06-.43-2.28-1.54-2.39-.56-.09-1.06.19-1.5.37l-2.77,1.19c-3.54,1.51-13,5.55-16.65,7.12l.05.12h0Z"/><path class="cls-19" d="m325,235.27c3.76-.98,7.29-2.42,10.78-4.08.05-.02.04-.01,0,0-.13.05-.3.05-.43,0-.23-.08-.4-.41-.29-.68l-.02.05c-1.44,4.01-2.71,8.04-3.36,12.28l.12.05,2.27-6.03c.75-2.02,1.53-3.98,2.26-6.06.07-.77-.79-1.07-1.32-.66,0,0-1.44.72-1.44.72-1.84.92-6.75,3.37-8.65,4.31l.06.12h0Z"/><path class="cls-19" d="m335.38,364.75c-3.16,1.61-6.04,3.57-8.86,5.65-.78.53-.98,1.68-.43,2.45,0,0,.11.18.11.18l.94,1.45c.39.53,1.05.85,1.7.83,1.27-.03,1.89-1.2,2.68-1.96,2.26-2.51,4.4-5.07,6.25-7.93,0,0-.09-.09-.09-.09-1.57,1.59-5.54,5.62-7.05,7.15l-1.17,1.19c-.32.44-.96.43-1.25.02l-.93-1.38c-.48-.56-.13-.83.35-1.18,1.66-1.33,6.12-4.9,7.83-6.28l-.08-.1h0Z"/><path class="cls-55" d="m302.98,338.85c3.84-4.27,11.21-4.68,15.51-.86,2.16,1.92,3.48,4.6,5.54,6.63,6.42,6.32,17.98,4.64,24.24,11.1,2.93,3.02,4.15,7.6,3.12,11.68-.98,3.85-3.72,6.98-6.53,9.79-2.77,2.77-5.72,5.41-9.19,7.23s-7.5,2.78-11.33,2.01c-6.98-1.4-11.76-8.12-13.67-14.98-.57-2.04-.99-4.21-2.29-5.88-2.88-3.69-9.12-3.78-11.34-7.9-1.03-1.9-.89-4.26-.14-6.28s2.06-3.78,3.35-5.52"/><path class="cls-48" d="m299.66,253.03c-.15.22-.38.32-.53.22-.14-.1-.14-.35,0-.57.15-.22.38-.32.53-.22.14.1.14.35,0,.57Z"/><path class="cls-48" d="m283.98,245.13c-.15.22-.38.32-.53.22-.14-.1-.14-.35,0-.57.15-.22.38-.32.53-.22.14.1.14.35,0,.57Z"/></g></g></svg>